# MagicaVoxel @ Ephtracy

# group
o S_wear

# material
mtllib ShippedProducts_centered-1-S_wear.mtl
usemtl palette

# normals
vn -1 0 0
vn 1 0 0
vn 0 0 1
vn 0 0 -1
vn 0 -1 0
vn 0 1 0

# texcoords
vt 0.814453 0.5
vt 0.818359 0.5

# verts
v -10.5 0 0.4
v -10.5 0 -1.9
v -10.5 0.1 0.3
v -10.5 0.1 -1.9
v -10.5 0.1 -2.2
v -10.5 0.2 -0.8
v -10.5 0.2 -2.2
v -10.5 0.3 0.3
v -10.5 0.3 -0.8
v -10.5 0.4 0.4
v -10.5 0.4 -0.7
v -10.5 0.6 0.4
v -10.5 0.6 -0.7
v -10.5 0.7 0.3
v -10.5 0.7 -0.8
v -10.5 0.9 0.3
v -10.5 0.9 -0.8
v -10.5 1 0.4
v -10.5 1 -0.7
v -10.5 1.2 0.4
v -10.5 1.2 -0.7
v -10.5 1.3 0.3
v -10.5 1.3 -0.8
v -10.5 1.5 0.3
v -10.5 1.5 -0.8
v -10.5 1.6 2.1
v -10.5 1.6 0.4
v -10.5 1.6 -0.7
v -10.5 1.7 2.1
v -10.5 1.7 -0.7
v -10.5 1.8 2.1
v -10.5 1.8 -0.8
v -10.4 0 -1.9
v -10.4 0 -2.2
v -10.4 0.1 -1.9
v -10.4 0.1 -2.2
v -10.3 0.1 -1.9
v -10.3 0.1 -2.2
v -10.3 0.2 -1.9
v -10.3 0.2 -2.2
v -10.3 1.6 2
v -10.3 1.6 1.9
v -10.3 1.7 2.1
v -10.3 1.7 2
v -10.3 1.7 1.9
v -10.3 1.7 1.8
v -10.3 1.8 2.1
v -10.3 1.8 1.8
v -10.2 0 -1.9
v -10.2 0 -2.2
v -10.2 0.1 -1.9
v -10.2 0.1 -2.2
v -10.1 0.1 -1.9
v -10.1 0.1 -2.2
v -10.1 0.2 -1.9
v -10.1 0.2 -2.2
v -10.1 1.6 2.1
v -10.1 1.6 2
v -10.1 1.7 2.1
v -10.1 1.7 2
v -10.1 1.7 1.9
v -10.1 1.8 2.1
v -10.1 1.8 1.9
v -10 0 -1.9
v -10 0 -2.2
v -10 0.1 -1.9
v -10 0.1 -2.2
v -9.9 1.6 2
v -9.9 1.6 1.8
v -9.9 1.7 2
v -9.9 1.7 1.8
v -9.8 0.1 -1.9
v -9.8 0.1 -2.1
v -9.8 0.1 -2.2
v -9.8 0.2 -1.9
v -9.8 0.2 -2.2
v -9.8 1.7 1.9
v -9.8 1.7 1.8
v -9.8 1.8 1.9
v -9.8 1.8 1.8
v -9.7 0 -1.9
v -9.7 0 -2.2
v -9.7 0.1 -1.9
v -9.7 0.1 -2.2
v -9.7 1.6 1.9
v -9.7 1.6 1.8
v -9.7 1.7 2.1
v -9.7 1.7 1.9
v -9.7 1.7 1.8
v -9.7 1.8 2.1
v -9.7 1.8 1.9
v -9.6 0.1 -2.1
v -9.6 0.1 -2.2
v -9.6 0.2 -2.1
v -9.6 0.2 -2.2
v -9.6 1.6 2.1
v -9.6 1.6 2
v -9.6 1.6 1.9
v -9.6 1.7 2.1
v -9.6 1.7 2
v -9.6 1.7 1.9
v -9.5 0 -1.9
v -9.5 0 -2.2
v -9.5 0.1 -1.9
v -9.5 0.1 -2.2
v -10.4 0.1 -1.9
v -10.4 0.1 -2.2
v -10.4 0.2 -1.9
v -10.4 0.2 -2.2
v -10.4 1.6 2.1
v -10.4 1.6 1.9
v -10.4 1.7 2.1
v -10.4 1.7 1.9
v -10.4 1.7 1.8
v -10.4 1.8 2.1
v -10.4 1.8 1.8
v -10.3 0 -1.9
v -10.3 0 -2.2
v -10.3 0.1 -1.9
v -10.3 0.1 -2.2
v -10.2 0.1 -1.9
v -10.2 0.1 -2.2
v -10.2 0.2 -1.9
v -10.2 0.2 -2.2
v -10.2 1.7 2.1
v -10.2 1.7 2
v -10.2 1.7 1.9
v -10.2 1.8 2.1
v -10.2 1.8 1.9
v -10.1 0 -1.9
v -10.1 0 -2.2
v -10.1 0.1 -1.9
v -10.1 0.1 -2.2
v -10 1.6 2.1
v -10 1.6 1.8
v -10 1.7 2.1
v -10 1.7 1.8
v -9.9 0 -2.1
v -9.9 0 -2.2
v -9.9 0.1 -1.9
v -9.9 0.1 -2.1
v -9.9 0.1 -2.2
v -9.9 0.2 -1.9
v -9.9 0.2 -2.2
v -9.9 1.7 2.1
v -9.9 1.7 2
v -9.9 1.7 1.8
v -9.9 1.8 2.1
v -9.9 1.8 1.8
v -9.8 0 -1.9
v -9.8 0 -2.1
v -9.8 0.1 -1.9
v -9.8 0.1 -2.1
v -9.8 1.6 2
v -9.8 1.6 1.8
v -9.8 1.7 2
v -9.8 1.7 1.9
v -9.8 1.7 1.8
v -9.7 0.1 -2.1
v -9.7 0.1 -2.2
v -9.7 0.2 -2.1
v -9.7 0.2 -2.2
v -9.6 0 -1.9
v -9.6 0 -2.2
v -9.6 0.1 -1.9
v -9.6 0.1 -2.2
v -9.6 1.7 2.1
v -9.6 1.7 2
v -9.6 1.7 1.9
v -9.6 1.8 2.1
v -9.6 1.8 1.9
v -9.5 0.1 -1.9
v -9.5 0.1 -2.2
v -9.5 0.2 -1.9
v -9.5 0.2 -2.2
v -9.5 1.6 2.1
v -9.5 1.6 2
v -9.5 1.7 2.1
v -9.5 1.7 2
v -9.4 0 0.4
v -9.4 0 -2.2
v -9.4 0.1 0.3
v -9.4 0.1 -1.9
v -9.4 0.1 -2.2
v -9.4 0.2 -0.8
v -9.4 0.2 -1.9
v -9.4 0.3 0.3
v -9.4 0.3 -0.8
v -9.4 0.4 0.4
v -9.4 0.4 -0.7
v -9.4 0.6 0.4
v -9.4 0.6 -0.7
v -9.4 0.7 0.3
v -9.4 0.7 -0.8
v -9.4 0.9 0.3
v -9.4 0.9 -0.8
v -9.4 1 0.4
v -9.4 1 -0.7
v -9.4 1.2 0.4
v -9.4 1.2 -0.7
v -9.4 1.3 0.3
v -9.4 1.3 -0.8
v -9.4 1.5 0.3
v -9.4 1.5 -0.8
v -9.4 1.6 2
v -9.4 1.6 0.4
v -9.4 1.6 -0.7
v -9.4 1.7 2
v -9.4 1.7 1.9
v -9.4 1.7 -0.7
v -9.4 1.8 1.9
v -9.4 1.8 -0.8
v -10.5 1.6 2.1
v -10.5 1.7 2.1
v -10.5 1.8 2.1
v -10.4 1.6 2.1
v -10.4 1.7 2.1
v -10.4 1.8 2.1
v -10.3 1.7 2.1
v -10.3 1.8 2.1
v -10.2 1.7 2.1
v -10.2 1.8 2.1
v -10.1 1.6 2.1
v -10.1 1.7 2.1
v -10.1 1.8 2.1
v -10 1.6 2.1
v -10 1.7 2.1
v -9.9 1.7 2.1
v -9.9 1.8 2.1
v -9.7 1.7 2.1
v -9.7 1.8 2.1
v -9.6 1.6 2.1
v -9.6 1.7 2.1
v -9.6 1.8 2.1
v -9.5 1.6 2.1
v -9.5 1.7 2.1
v -10.3 1.6 2
v -10.3 1.7 2
v -10.2 1.7 2
v -10.1 1.6 2
v -10.1 1.7 2
v -9.9 1.6 2
v -9.9 1.7 2
v -9.8 1.6 2
v -9.8 1.7 2
v -9.5 1.6 2
v -9.5 1.7 2
v -9.4 1.6 2
v -9.4 1.7 2
v -10.4 1.6 1.9
v -10.4 1.7 1.9
v -10.3 1.6 1.9
v -10.3 1.7 1.9
v -10.2 1.7 1.9
v -10.2 1.8 1.9
v -10.1 1.7 1.9
v -10.1 1.8 1.9
v -9.8 1.7 1.9
v -9.8 1.8 1.9
v -9.7 1.6 1.9
v -9.7 1.7 1.9
v -9.7 1.8 1.9
v -9.6 1.6 1.9
v -9.6 1.7 1.9
v -9.6 1.8 1.9
v -9.4 1.7 1.9
v -9.4 1.8 1.9
v -10.4 1.7 1.8
v -10.4 1.8 1.8
v -10.3 1.7 1.8
v -10.3 1.8 1.8
v -10 1.6 1.8
v -10 1.7 1.8
v -9.9 1.6 1.8
v -9.9 1.7 1.8
v -9.9 1.8 1.8
v -9.8 1.6 1.8
v -9.8 1.7 1.8
v -9.8 1.8 1.8
v -9.7 1.6 1.8
v -9.7 1.7 1.8
v -10.5 0 0.4
v -10.5 0.4 0.4
v -10.5 0.6 0.4
v -10.5 1 0.4
v -10.5 1.2 0.4
v -10.5 1.6 0.4
v -9.4 0 0.4
v -9.4 0.4 0.4
v -9.4 0.6 0.4
v -9.4 1 0.4
v -9.4 1.2 0.4
v -9.4 1.6 0.4
v -10.5 0.2 -0.8
v -10.5 0.3 -0.8
v -10.5 0.7 -0.8
v -10.5 0.9 -0.8
v -10.5 1.3 -0.8
v -10.5 1.5 -0.8
v -10.5 1.8 -0.8
v -9.4 0.2 -0.8
v -9.4 0.3 -0.8
v -9.4 0.7 -0.8
v -9.4 0.9 -0.8
v -9.4 1.3 -0.8
v -9.4 1.5 -0.8
v -9.4 1.8 -0.8
v -10.5 0 -1.9
v -10.5 0.1 -1.9
v -10.4 0 -1.9
v -10.4 0.1 -1.9
v -10.4 0.2 -1.9
v -10.3 0 -1.9
v -10.3 0.1 -1.9
v -10.3 0.2 -1.9
v -10.2 0 -1.9
v -10.2 0.1 -1.9
v -10.2 0.2 -1.9
v -10.1 0 -1.9
v -10.1 0.1 -1.9
v -10.1 0.2 -1.9
v -10 0 -1.9
v -10 0.1 -1.9
v -9.9 0.1 -1.9
v -9.9 0.2 -1.9
v -9.8 0 -1.9
v -9.8 0.1 -1.9
v -9.8 0.2 -1.9
v -9.7 0 -1.9
v -9.7 0.1 -1.9
v -9.6 0 -1.9
v -9.6 0.1 -1.9
v -9.5 0 -1.9
v -9.5 0.1 -1.9
v -9.5 0.2 -1.9
v -9.4 0.1 -1.9
v -9.4 0.2 -1.9
v -9.9 0 -2.1
v -9.9 0.1 -2.1
v -9.8 0 -2.1
v -9.8 0.1 -2.1
v -9.7 0.1 -2.1
v -9.7 0.2 -2.1
v -9.6 0.1 -2.1
v -9.6 0.2 -2.1
v -10.5 0.1 -2.2
v -10.5 0.2 -2.2
v -10.4 0 -2.2
v -10.4 0.1 -2.2
v -10.4 0.2 -2.2
v -10.3 0 -2.2
v -10.3 0.1 -2.2
v -10.3 0.2 -2.2
v -10.2 0 -2.2
v -10.2 0.1 -2.2
v -10.2 0.2 -2.2
v -10.1 0 -2.2
v -10.1 0.1 -2.2
v -10.1 0.2 -2.2
v -10 0 -2.2
v -10 0.1 -2.2
v -9.9 0 -2.2
v -9.9 0.1 -2.2
v -9.9 0.2 -2.2
v -9.8 0.1 -2.2
v -9.8 0.2 -2.2
v -9.7 0 -2.2
v -9.7 0.1 -2.2
v -9.7 0.2 -2.2
v -9.6 0 -2.2
v -9.6 0.1 -2.2
v -9.6 0.2 -2.2
v -9.5 0 -2.2
v -9.5 0.1 -2.2
v -9.5 0.2 -2.2
v -9.4 0 -2.2
v -9.4 0.1 -2.2
v -10.5 0 0.4
v -9.4 0 0.4
v -10.5 0 -1.9
v -10.4 0 -1.9
v -10.3 0 -1.9
v -10.2 0 -1.9
v -10.1 0 -1.9
v -10 0 -1.9
v -9.8 0 -1.9
v -9.7 0 -1.9
v -9.6 0 -1.9
v -9.5 0 -1.9
v -9.9 0 -2.1
v -9.8 0 -2.1
v -10.4 0 -2.2
v -10.3 0 -2.2
v -10.2 0 -2.2
v -10.1 0 -2.2
v -10 0 -2.2
v -9.9 0 -2.2
v -9.7 0 -2.2
v -9.6 0 -2.2
v -9.5 0 -2.2
v -9.4 0 -2.2
v -10.5 0.1 -1.9
v -10.4 0.1 -1.9
v -10.3 0.1 -1.9
v -10.2 0.1 -1.9
v -10.1 0.1 -1.9
v -10 0.1 -1.9
v -9.8 0.1 -1.9
v -9.7 0.1 -1.9
v -9.6 0.1 -1.9
v -9.5 0.1 -1.9
v -9.8 0.1 -2.1
v -10.5 0.1 -2.2
v -10.4 0.1 -2.2
v -10.3 0.1 -2.2
v -10.2 0.1 -2.2
v -10.1 0.1 -2.2
v -10 0.1 -2.2
v -9.8 0.1 -2.2
v -9.7 0.1 -2.2
v -9.6 0.1 -2.2
v -9.5 0.1 -2.2
v -10.5 1.6 2.1
v -10.4 1.6 2.1
v -10.1 1.6 2.1
v -10 1.6 2.1
v -9.6 1.6 2.1
v -9.5 1.6 2.1
v -10.3 1.6 2
v -10.1 1.6 2
v -9.9 1.6 2
v -9.8 1.6 2
v -9.6 1.6 2
v -9.5 1.6 2
v -9.4 1.6 2
v -10.4 1.6 1.9
v -10.3 1.6 1.9
v -9.7 1.6 1.9
v -9.6 1.6 1.9
v -10 1.6 1.8
v -9.9 1.6 1.8
v -9.8 1.6 1.8
v -9.7 1.6 1.8
v -10.5 1.6 0.4
v -9.4 1.6 0.4
v -10.3 1.7 2.1
v -10.2 1.7 2.1
v -10 1.7 2.1
v -9.9 1.7 2.1
v -9.7 1.7 2.1
v -9.6 1.7 2.1
v -10.3 1.7 2
v -10.2 1.7 2
v -9.9 1.7 2
v -9.6 1.7 2
v -9.8 1.7 1.9
v -9.7 1.7 1.9
v -9.6 1.7 1.9
v -10 1.7 1.8
v -9.9 1.7 1.8
v -9.8 1.7 1.8
v -9.7 1.7 1.8
v -10.4 0.1 -1.9
v -10.3 0.1 -1.9
v -10.2 0.1 -1.9
v -10.1 0.1 -1.9
v -9.9 0.1 -1.9
v -9.8 0.1 -1.9
v -9.5 0.1 -1.9
v -9.4 0.1 -1.9
v -9.9 0.1 -2.1
v -9.8 0.1 -2.1
v -9.7 0.1 -2.1
v -9.6 0.1 -2.1
v -10.4 0.1 -2.2
v -10.3 0.1 -2.2
v -10.2 0.1 -2.2
v -10.1 0.1 -2.2
v -9.7 0.1 -2.2
v -9.6 0.1 -2.2
v -9.5 0.1 -2.2
v -9.4 0.1 -2.2
v -10.5 0.2 -0.8
v -9.4 0.2 -0.8
v -10.4 0.2 -1.9
v -10.3 0.2 -1.9
v -10.2 0.2 -1.9
v -10.1 0.2 -1.9
v -9.9 0.2 -1.9
v -9.8 0.2 -1.9
v -9.5 0.2 -1.9
v -9.4 0.2 -1.9
v -9.7 0.2 -2.1
v -9.6 0.2 -2.1
v -10.5 0.2 -2.2
v -10.4 0.2 -2.2
v -10.3 0.2 -2.2
v -10.2 0.2 -2.2
v -10.1 0.2 -2.2
v -9.9 0.2 -2.2
v -9.8 0.2 -2.2
v -9.7 0.2 -2.2
v -9.6 0.2 -2.2
v -9.5 0.2 -2.2
v -9.6 1.7 2.1
v -9.5 1.7 2.1
v -10.2 1.7 2
v -10.1 1.7 2
v -9.9 1.7 2
v -9.8 1.7 2
v -9.6 1.7 2
v -9.5 1.7 2
v -9.4 1.7 2
v -10.4 1.7 1.9
v -10.3 1.7 1.9
v -10.2 1.7 1.9
v -10.1 1.7 1.9
v -9.8 1.7 1.9
v -9.6 1.7 1.9
v -9.4 1.7 1.9
v -10.4 1.7 1.8
v -10.3 1.7 1.8
v -9.9 1.7 1.8
v -9.8 1.7 1.8
v -10.5 1.8 2.1
v -10.4 1.8 2.1
v -10.3 1.8 2.1
v -10.2 1.8 2.1
v -10.1 1.8 2.1
v -9.9 1.8 2.1
v -9.7 1.8 2.1
v -9.6 1.8 2.1
v -10.2 1.8 1.9
v -10.1 1.8 1.9
v -9.8 1.8 1.9
v -9.7 1.8 1.9
v -9.6 1.8 1.9
v -9.4 1.8 1.9
v -10.4 1.8 1.8
v -10.3 1.8 1.8
v -9.9 1.8 1.8
v -9.8 1.8 1.8
v -10.5 1.8 -0.8
v -9.4 1.8 -0.8

# faces
f 3/2/1 2/2/1 1/2/1
f 4/2/1 2/2/1 3/2/1
f 6/1/1 4/1/1 3/1/1
f 6/1/1 5/1/1 4/1/1
f 7/1/1 5/1/1 6/1/1
f 8/2/1 3/2/1 1/2/1
f 8/1/1 6/1/1 3/1/1
f 9/1/1 6/1/1 8/1/1
f 10/2/1 8/2/1 1/2/1
f 10/2/1 9/2/1 8/2/1
f 11/2/1 9/2/1 10/2/1
f 12/1/1 11/1/1 10/1/1
f 13/2/1 9/2/1 11/2/1
f 13/1/1 11/1/1 12/1/1
f 14/2/1 13/2/1 12/2/1
f 15/2/1 9/2/1 13/2/1
f 15/2/1 13/2/1 14/2/1
f 16/2/1 14/2/1 12/2/1
f 16/1/1 15/1/1 14/1/1
f 17/1/1 15/1/1 16/1/1
f 18/2/1 16/2/1 12/2/1
f 18/2/1 17/2/1 16/2/1
f 19/2/1 17/2/1 18/2/1
f 20/1/1 19/1/1 18/1/1
f 21/2/1 17/2/1 19/2/1
f 21/1/1 19/1/1 20/1/1
f 22/2/1 21/2/1 20/2/1
f 23/2/1 17/2/1 21/2/1
f 23/2/1 21/2/1 22/2/1
f 24/2/1 22/2/1 20/2/1
f 24/1/1 23/1/1 22/1/1
f 25/1/1 23/1/1 24/1/1
f 27/2/1 24/2/1 20/2/1
f 27/2/1 25/2/1 24/2/1
f 28/2/1 25/2/1 27/2/1
f 29/1/1 27/1/1 26/1/1
f 29/1/1 28/1/1 27/1/1
f 30/2/1 25/2/1 28/2/1
f 30/1/1 28/1/1 29/1/1
f 31/2/1 30/2/1 29/2/1
f 32/2/1 25/2/1 30/2/1
f 32/2/1 30/2/1 31/2/1
f 35/2/1 34/2/1 33/2/1
f 36/2/1 34/2/1 35/2/1
f 39/1/1 38/1/1 37/1/1
f 40/1/1 38/1/1 39/1/1
f 44/1/1 42/1/1 41/1/1
f 45/1/1 42/1/1 44/1/1
f 47/2/1 44/2/1 43/2/1
f 47/2/1 46/2/1 45/2/1
f 47/2/1 45/2/1 44/2/1
f 48/2/1 46/2/1 47/2/1
f 51/2/1 50/2/1 49/2/1
f 52/2/1 50/2/1 51/2/1
f 55/1/1 54/1/1 53/1/1
f 56/1/1 54/1/1 55/1/1
f 59/1/1 58/1/1 57/1/1
f 60/1/1 58/1/1 59/1/1
f 62/2/1 60/2/1 59/2/1
f 62/2/1 61/2/1 60/2/1
f 63/2/1 61/2/1 62/2/1
f 66/2/1 65/2/1 64/2/1
f 67/2/1 65/2/1 66/2/1
f 70/1/1 69/1/1 68/1/1
f 71/1/1 69/1/1 70/1/1
f 75/1/1 73/1/1 72/1/1
f 75/1/1 74/1/1 73/1/1
f 76/1/1 74/1/1 75/1/1
f 79/2/1 78/2/1 77/2/1
f 80/2/1 78/2/1 79/2/1
f 83/2/1 82/2/1 81/2/1
f 84/2/1 82/2/1 83/2/1
f 88/1/1 86/1/1 85/1/1
f 89/1/1 86/1/1 88/1/1
f 90/2/1 88/2/1 87/2/1
f 91/2/1 88/2/1 90/2/1
f 94/1/1 93/1/1 92/1/1
f 95/1/1 93/1/1 94/1/1
f 99/2/1 97/2/1 96/2/1
f 100/1/1 98/1/1 97/1/1
f 100/2/1 97/2/1 99/2/1
f 101/1/1 98/1/1 100/1/1
f 104/2/1 103/2/1 102/2/1
f 105/2/1 103/2/1 104/2/1
f 106/1/2 107/1/2 108/1/2
f 108/1/2 107/1/2 109/1/2
f 110/1/2 111/1/2 112/1/2
f 112/1/2 111/1/2 113/1/2
f 112/2/2 113/2/2 115/2/2
f 113/2/2 114/2/2 115/2/2
f 115/2/2 114/2/2 116/2/2
f 117/2/2 118/2/2 119/2/2
f 119/2/2 118/2/2 120/2/2
f 121/1/2 122/1/2 123/1/2
f 123/1/2 122/1/2 124/1/2
f 125/2/2 126/2/2 128/2/2
f 126/2/2 127/2/2 128/2/2
f 128/2/2 127/2/2 129/2/2
f 130/2/2 131/2/2 132/2/2
f 132/2/2 131/2/2 133/2/2
f 134/1/2 135/1/2 136/1/2
f 136/1/2 135/1/2 137/1/2
f 138/2/2 139/2/2 141/2/2
f 141/2/2 139/2/2 142/2/2
f 140/1/2 141/1/2 143/1/2
f 141/1/2 142/1/2 143/1/2
f 143/1/2 142/1/2 144/1/2
f 145/2/2 146/2/2 148/2/2
f 146/2/2 147/2/2 148/2/2
f 148/2/2 147/2/2 149/2/2
f 150/2/2 151/2/2 152/2/2
f 152/2/2 151/2/2 153/2/2
f 154/1/2 155/1/2 156/1/2
f 156/1/2 155/1/2 157/1/2
f 157/1/2 155/1/2 158/1/2
f 159/1/2 160/1/2 161/1/2
f 161/1/2 160/1/2 162/1/2
f 163/2/2 164/2/2 165/2/2
f 165/2/2 164/2/2 166/2/2
f 167/2/2 168/2/2 170/2/2
f 168/2/2 169/2/2 170/2/2
f 170/2/2 169/2/2 171/2/2
f 172/1/2 173/1/2 174/1/2
f 174/1/2 173/1/2 175/1/2
f 176/2/2 177/2/2 178/2/2
f 178/2/2 177/2/2 179/2/2
f 180/2/2 181/2/2 182/2/2
f 182/2/2 181/2/2 183/2/2
f 183/2/2 181/2/2 184/2/2
f 182/1/2 183/1/2 185/1/2
f 185/1/2 183/1/2 186/1/2
f 180/2/2 182/2/2 187/2/2
f 182/1/2 185/1/2 187/1/2
f 187/1/2 185/1/2 188/1/2
f 180/2/2 187/2/2 189/2/2
f 187/2/2 188/2/2 189/2/2
f 189/2/2 188/2/2 190/2/2
f 189/1/2 190/1/2 191/1/2
f 190/2/2 188/2/2 192/2/2
f 191/1/2 190/1/2 192/1/2
f 191/2/2 192/2/2 193/2/2
f 192/2/2 188/2/2 194/2/2
f 193/2/2 192/2/2 194/2/2
f 191/2/2 193/2/2 195/2/2
f 193/1/2 194/1/2 195/1/2
f 195/1/2 194/1/2 196/1/2
f 191/2/2 195/2/2 197/2/2
f 195/2/2 196/2/2 197/2/2
f 197/2/2 196/2/2 198/2/2
f 197/1/2 198/1/2 199/1/2
f 198/2/2 196/2/2 200/2/2
f 199/1/2 198/1/2 200/1/2
f 199/2/2 200/2/2 201/2/2
f 200/2/2 196/2/2 202/2/2
f 201/2/2 200/2/2 202/2/2
f 199/2/2 201/2/2 203/2/2
f 201/1/2 202/1/2 203/1/2
f 203/1/2 202/1/2 204/1/2
f 199/2/2 203/2/2 206/2/2
f 203/2/2 204/2/2 206/2/2
f 206/2/2 204/2/2 207/2/2
f 205/1/2 206/1/2 208/1/2
f 206/1/2 207/1/2 208/1/2
f 208/1/2 207/1/2 209/1/2
f 207/2/2 204/2/2 210/2/2
f 209/1/2 207/1/2 210/1/2
f 209/2/2 210/2/2 211/2/2
f 210/2/2 204/2/2 212/2/2
f 211/2/2 210/2/2 212/2/2
f 216/1/3 214/1/3 213/1/3
f 217/2/3 215/2/3 214/2/3
f 217/1/3 214/1/3 216/1/3
f 218/2/3 215/2/3 217/2/3
f 221/2/3 220/2/3 219/2/3
f 222/2/3 220/2/3 221/2/3
f 226/1/3 224/1/3 223/1/3
f 227/2/3 225/2/3 224/2/3
f 227/1/3 224/1/3 226/1/3
f 228/2/3 225/2/3 227/2/3
f 229/2/3 225/2/3 228/2/3
f 233/2/3 231/2/3 230/2/3
f 234/2/3 231/2/3 233/2/3
f 235/2/3 233/2/3 232/2/3
f 236/2/3 233/2/3 235/2/3
f 239/1/3 238/1/3 237/1/3
f 240/1/3 239/1/3 237/1/3
f 241/1/3 239/1/3 240/1/3
f 244/1/3 243/1/3 242/1/3
f 245/1/3 243/1/3 244/1/3
f 248/1/3 247/1/3 246/1/3
f 249/1/3 247/1/3 248/1/3
f 252/1/3 251/1/3 250/1/3
f 253/1/3 251/1/3 252/1/3
f 256/2/3 255/2/3 254/2/3
f 257/2/3 255/2/3 256/2/3
f 261/2/3 259/2/3 258/2/3
f 262/2/3 259/2/3 261/2/3
f 263/1/3 261/1/3 260/1/3
f 264/1/3 261/1/3 263/1/3
f 266/2/3 265/2/3 264/2/3
f 267/2/3 265/2/3 266/2/3
f 270/2/3 269/2/3 268/2/3
f 271/2/3 269/2/3 270/2/3
f 274/1/3 273/1/3 272/1/3
f 275/1/3 273/1/3 274/1/3
f 278/2/3 276/2/3 275/2/3
f 279/2/3 276/2/3 278/2/3
f 280/1/3 278/1/3 277/1/3
f 281/1/3 278/1/3 280/1/3
f 288/2/3 283/2/3 282/2/3
f 289/1/3 284/1/3 283/1/3
f 289/2/3 283/2/3 288/2/3
f 290/2/3 285/2/3 284/2/3
f 290/1/3 284/1/3 289/1/3
f 291/1/3 286/1/3 285/1/3
f 291/2/3 285/2/3 290/2/3
f 292/2/3 287/2/3 286/2/3
f 292/1/3 286/1/3 291/1/3
f 293/2/3 287/2/3 292/2/3
f 294/1/4 295/1/4 301/1/4
f 295/2/4 296/2/4 302/2/4
f 301/1/4 295/1/4 302/1/4
f 296/1/4 297/1/4 303/1/4
f 302/2/4 296/2/4 303/2/4
f 297/2/4 298/2/4 304/2/4
f 303/1/4 297/1/4 304/1/4
f 298/1/4 299/1/4 305/1/4
f 304/2/4 298/2/4 305/2/4
f 299/2/4 300/2/4 306/2/4
f 305/1/4 299/1/4 306/1/4
f 306/2/4 300/2/4 307/2/4
f 308/2/4 309/2/4 310/2/4
f 310/2/4 309/2/4 311/2/4
f 311/1/4 312/1/4 314/1/4
f 314/1/4 312/1/4 315/1/4
f 313/2/4 314/2/4 316/2/4
f 316/2/4 314/2/4 317/2/4
f 317/1/4 318/1/4 320/1/4
f 320/1/4 318/1/4 321/1/4
f 319/2/4 320/2/4 322/2/4
f 322/2/4 320/2/4 323/2/4
f 324/1/4 325/1/4 327/1/4
f 327/1/4 325/1/4 328/1/4
f 326/2/4 327/2/4 329/2/4
f 329/2/4 327/2/4 330/2/4
f 331/2/4 332/2/4 333/2/4
f 333/2/4 332/2/4 334/2/4
f 334/1/4 335/1/4 336/1/4
f 336/1/4 335/1/4 337/1/4
f 338/2/4 339/2/4 340/2/4
f 340/2/4 339/2/4 341/2/4
f 342/1/4 343/1/4 344/1/4
f 344/1/4 343/1/4 345/1/4
f 346/1/4 347/1/4 349/1/4
f 349/1/4 347/1/4 350/1/4
f 348/2/4 349/2/4 351/2/4
f 351/2/4 349/2/4 352/2/4
f 352/1/4 353/1/4 355/1/4
f 355/1/4 353/1/4 356/1/4
f 354/2/4 355/2/4 357/2/4
f 357/2/4 355/2/4 358/2/4
f 358/1/4 359/1/4 361/1/4
f 360/2/4 361/2/4 362/2/4
f 361/1/4 359/1/4 363/1/4
f 362/2/4 361/2/4 363/2/4
f 363/1/4 359/1/4 364/1/4
f 365/1/4 366/1/4 368/1/4
f 368/1/4 366/1/4 369/1/4
f 367/2/4 368/2/4 370/2/4
f 370/2/4 368/2/4 371/2/4
f 371/1/4 372/1/4 374/1/4
f 374/1/4 372/1/4 375/1/4
f 373/2/4 374/2/4 376/2/4
f 376/2/4 374/2/4 377/2/4
f 380/2/5 379/2/5 378/2/5
f 381/2/5 379/2/5 380/2/5
f 382/2/5 379/2/5 381/2/5
f 383/2/5 379/2/5 382/2/5
f 384/2/5 379/2/5 383/2/5
f 385/2/5 379/2/5 384/2/5
f 386/2/5 379/2/5 385/2/5
f 387/2/5 379/2/5 386/2/5
f 388/2/5 379/2/5 387/2/5
f 389/2/5 379/2/5 388/2/5
f 390/2/5 386/2/5 385/2/5
f 391/2/5 386/2/5 390/2/5
f 392/2/5 382/2/5 381/2/5
f 393/2/5 382/2/5 392/2/5
f 394/2/5 384/2/5 383/2/5
f 395/2/5 384/2/5 394/2/5
f 396/2/5 390/2/5 385/2/5
f 397/2/5 390/2/5 396/2/5
f 398/2/5 388/2/5 387/2/5
f 399/2/5 388/2/5 398/2/5
f 400/2/5 379/2/5 389/2/5
f 401/2/5 379/2/5 400/2/5
f 412/1/5 409/1/5 408/1/5
f 413/1/5 403/1/5 402/1/5
f 414/1/5 403/1/5 413/1/5
f 415/1/5 405/1/5 404/1/5
f 416/1/5 405/1/5 415/1/5
f 417/1/5 407/1/5 406/1/5
f 418/1/5 407/1/5 417/1/5
f 419/1/5 409/1/5 412/1/5
f 420/1/5 409/1/5 419/1/5
f 421/1/5 411/1/5 410/1/5
f 422/1/5 411/1/5 421/1/5
f 430/1/5 426/1/5 425/1/5
f 433/2/5 428/2/5 427/2/5
f 434/2/5 428/2/5 433/2/5
f 436/1/5 424/1/5 423/1/5
f 437/1/5 430/1/5 429/1/5
f 439/1/5 435/1/5 434/1/5
f 439/1/5 434/1/5 433/1/5
f 440/1/5 437/1/5 436/1/5
f 440/1/5 426/1/5 430/1/5
f 440/1/5 430/1/5 437/1/5
f 441/1/5 432/1/5 431/1/5
f 442/1/5 432/1/5 441/1/5
f 443/1/5 439/1/5 438/1/5
f 444/1/5 442/1/5 441/1/5
f 444/1/5 443/1/5 442/1/5
f 444/1/5 440/1/5 436/1/5
f 444/1/5 436/1/5 423/1/5
f 444/1/5 441/1/5 440/1/5
f 445/1/5 439/1/5 443/1/5
f 445/1/5 443/1/5 444/1/5
f 445/1/5 435/1/5 439/1/5
f 452/2/5 447/2/5 446/2/5
f 453/2/5 447/2/5 452/2/5
f 454/2/5 449/2/5 448/2/5
f 455/2/5 451/2/5 450/2/5
f 457/2/5 455/2/5 450/2/5
f 458/2/5 455/2/5 457/2/5
f 459/2/5 454/2/5 448/2/5
f 460/2/5 454/2/5 459/2/5
f 461/2/5 457/2/5 456/2/5
f 462/2/5 457/2/5 461/2/5
f 467/2/6 468/2/6 471/2/6
f 471/2/6 468/2/6 472/2/6
f 463/2/6 464/2/6 475/2/6
f 475/2/6 464/2/6 476/2/6
f 465/2/6 466/2/6 477/2/6
f 477/2/6 466/2/6 478/2/6
f 473/2/6 474/2/6 479/2/6
f 479/2/6 474/2/6 480/2/6
f 469/2/6 470/2/6 481/2/6
f 481/2/6 470/2/6 482/2/6
f 483/1/6 484/1/6 485/1/6
f 485/1/6 484/1/6 486/1/6
f 486/1/6 484/1/6 487/1/6
f 487/1/6 484/1/6 488/1/6
f 488/1/6 484/1/6 489/1/6
f 489/1/6 484/1/6 490/1/6
f 490/1/6 484/1/6 491/1/6
f 491/1/6 484/1/6 492/1/6
f 490/1/6 491/1/6 493/1/6
f 493/1/6 491/1/6 494/1/6
f 483/1/6 485/1/6 495/1/6
f 495/1/6 485/1/6 496/1/6
f 486/1/6 487/1/6 497/1/6
f 497/1/6 487/1/6 498/1/6
f 488/1/6 489/1/6 499/1/6
f 499/1/6 489/1/6 500/1/6
f 490/1/6 493/1/6 501/1/6
f 501/1/6 493/1/6 502/1/6
f 494/1/6 491/1/6 503/1/6
f 503/1/6 491/1/6 504/1/6
f 505/2/6 506/2/6 511/2/6
f 511/2/6 506/2/6 512/2/6
f 507/1/6 508/1/6 516/1/6
f 516/1/6 508/1/6 517/1/6
f 509/1/6 510/1/6 518/1/6
f 511/1/6 512/1/6 519/1/6
f 512/1/6 513/1/6 519/1/6
f 519/1/6 513/1/6 520/1/6
f 514/1/6 515/1/6 521/1/6
f 521/1/6 515/1/6 522/1/6
f 509/1/6 518/1/6 523/1/6
f 523/1/6 518/1/6 524/1/6
f 527/2/6 528/2/6 533/2/6
f 529/2/6 530/2/6 534/2/6
f 531/2/6 532/2/6 536/2/6
f 536/2/6 532/2/6 537/2/6
f 525/2/6 526/2/6 539/2/6
f 533/2/6 534/2/6 540/2/6
f 527/2/6 533/2/6 540/2/6
f 534/2/6 530/2/6 541/2/6
f 540/2/6 534/2/6 541/2/6
f 537/2/6 538/2/6 542/2/6
f 536/2/6 537/2/6 542/2/6
f 535/2/6 536/2/6 542/2/6
f 540/2/6 541/2/6 543/2/6
f 541/2/6 542/2/6 543/2/6
f 525/2/6 539/2/6 543/2/6
f 539/2/6 540/2/6 543/2/6
f 542/2/6 538/2/6 544/2/6
f 543/2/6 542/2/6 544/2/6
