# MagicaVoxel @ Ephtracy

# group
o victoryBox

# material
mtllib boxes-0-victoryBox.mtl
usemtl palette

# normals
vn -1 0 0
vn 1 0 0
vn 0 0 1
vn 0 0 -1
vn 0 -1 0
vn 0 1 0

# texcoords
vt 0.845703 0.5
vt 0.853516 0.5
vt 0.876953 0.5
vt 0.970703 0.5
vt 0.974609 0.5

# verts
v -0.7 0 1.3
v -0.7 0 -1.4
v -0.7 0.3 -0.3
v -0.7 0.3 -0.8
v -0.7 0.4 -0.0999999
v -0.7 0.4 -0.3
v -0.7 0.4 -0.8
v -0.7 0.4 -1
v -0.7 0.5 1.19209e-07
v -0.7 0.5 -0.0999999
v -0.7 0.5 -0.2
v -0.7 0.5 -0.3
v -0.7 0.5 -0.8
v -0.7 0.5 -0.9
v -0.7 0.5 -1
v -0.7 0.5 -1.1
v -0.7 0.6 -0.0999999
v -0.7 0.6 -0.2
v -0.7 0.6 -0.5
v -0.7 0.6 -0.8
v -0.7 0.6 -0.9
v -0.7 0.6 -1
v -0.7 0.7 0.1
v -0.7 0.7 1.19209e-07
v -0.7 0.7 -0.0999999
v -0.7 0.7 -0.3
v -0.7 0.7 -0.5
v -0.7 0.7 -0.6
v -0.7 0.7 -0.7
v -0.7 0.7 -0.8
v -0.7 0.7 -0.9
v -0.7 0.7 -1
v -0.7 0.7 -1.1
v -0.7 0.7 -1.2
v -0.7 0.8 -0.2
v -0.7 0.8 -0.3
v -0.7 0.8 -0.4
v -0.7 0.8 -0.6
v -0.7 0.8 -0.7
v -0.7 0.8 -0.8
v -0.7 0.9 -0.0999999
v -0.7 0.9 -0.2
v -0.7 0.9 -0.3
v -0.7 0.9 -0.4
v -0.7 0.9 -0.9
v -0.7 0.9 -1
v -0.7 1 1.19209e-07
v -0.7 1 -0.0999999
v -0.7 1 -0.2
v -0.7 1 -0.3
v -0.7 1 -0.8
v -0.7 1 -0.9
v -0.7 1.1 0.2
v -0.7 1.1 0.1
v -0.7 1.1 1.19209e-07
v -0.7 1.1 -0.2
v -0.7 1.1 -0.9
v -0.7 1.1 -1
v -0.7 1.2 0.3
v -0.7 1.2 0.2
v -0.7 1.2 0.1
v -0.7 1.2 1.19209e-07
v -0.7 1.2 -0.0999999
v -0.7 1.2 -1
v -0.7 1.2 -1.1
v -0.7 1.2 -1.2
v -0.7 1.3 0.5
v -0.7 1.3 0.3
v -0.7 1.3 0.2
v -0.7 1.3 0.1
v -0.7 1.3 -0.0999999
v -0.7 1.3 -0.2
v -0.7 1.3 -0.9
v -0.7 1.3 -1
v -0.7 1.4 0.6
v -0.7 1.4 0.5
v -0.7 1.4 0.4
v -0.7 1.4 0.2
v -0.7 1.4 1.19209e-07
v -0.7 1.4 -0.0999999
v -0.7 1.4 -0.2
v -0.7 1.4 -0.3
v -0.7 1.4 -0.8
v -0.7 1.4 -0.9
v -0.7 1.4 -1
v -0.7 1.4 -1.1
v -0.7 1.5 0.6
v -0.7 1.5 0.4
v -0.7 1.5 -0.0999999
v -0.7 1.5 -0.3
v -0.7 1.5 -0.8
v -0.7 1.5 -1
v -0.7 1.6 -0.3
v -0.7 1.6 -0.8
v -0.7 1.8 1.3
v -0.7 1.8 -1.4
v 1 0 1.3
v 1 0 -1.4
v 1 0.3 -0.3
v 1 0.3 -0.8
v 1 0.4 -0.0999999
v 1 0.4 -0.3
v 1 0.4 -0.8
v 1 0.4 -1
v 1 0.5 1.19209e-07
v 1 0.5 -0.0999999
v 1 0.5 -0.2
v 1 0.5 -0.3
v 1 0.5 -0.8
v 1 0.5 -0.9
v 1 0.5 -1
v 1 0.5 -1.1
v 1 0.6 -0.0999999
v 1 0.6 -0.2
v 1 0.6 -0.5
v 1 0.6 -0.8
v 1 0.6 -0.9
v 1 0.6 -1
v 1 0.7 0.1
v 1 0.7 1.19209e-07
v 1 0.7 -0.0999999
v 1 0.7 -0.3
v 1 0.7 -0.5
v 1 0.7 -0.6
v 1 0.7 -0.7
v 1 0.7 -0.8
v 1 0.7 -0.9
v 1 0.7 -1
v 1 0.7 -1.1
v 1 0.7 -1.2
v 1 0.8 -0.2
v 1 0.8 -0.3
v 1 0.8 -0.4
v 1 0.8 -0.6
v 1 0.8 -0.7
v 1 0.8 -0.8
v 1 0.9 -0.0999999
v 1 0.9 -0.2
v 1 0.9 -0.3
v 1 0.9 -0.4
v 1 0.9 -0.9
v 1 0.9 -1
v 1 1 1.19209e-07
v 1 1 -0.0999999
v 1 1 -0.2
v 1 1 -0.3
v 1 1 -0.8
v 1 1 -0.9
v 1 1.1 0.2
v 1 1.1 0.1
v 1 1.1 1.19209e-07
v 1 1.1 -0.2
v 1 1.1 -0.9
v 1 1.1 -1
v 1 1.2 0.3
v 1 1.2 0.2
v 1 1.2 0.1
v 1 1.2 1.19209e-07
v 1 1.2 -0.0999999
v 1 1.2 -1
v 1 1.2 -1.1
v 1 1.2 -1.2
v 1 1.3 0.5
v 1 1.3 0.3
v 1 1.3 0.2
v 1 1.3 0.1
v 1 1.3 -0.0999999
v 1 1.3 -0.2
v 1 1.3 -0.9
v 1 1.3 -1
v 1 1.4 0.6
v 1 1.4 0.5
v 1 1.4 0.4
v 1 1.4 0.2
v 1 1.4 1.19209e-07
v 1 1.4 -0.0999999
v 1 1.4 -0.2
v 1 1.4 -0.3
v 1 1.4 -0.8
v 1 1.4 -0.9
v 1 1.4 -1
v 1 1.4 -1.1
v 1 1.5 0.6
v 1 1.5 0.4
v 1 1.5 -0.0999999
v 1 1.5 -0.3
v 1 1.5 -0.8
v 1 1.5 -1
v 1 1.6 -0.3
v 1 1.6 -0.8
v 1 1.8 1.3
v 1 1.8 -1.4
v -0.7 0 1.3
v -0.7 1.8 1.3
v 0 1.2 1.3
v 0 1.8 1.3
v 0.3 1.2 1.3
v 0.3 1.8 1.3
v 1 0 1.3
v 1 1.8 1.3
v -0.7 0 -1.4
v -0.7 1.8 -1.4
v 0 1.3 -1.4
v 0 1.8 -1.4
v 0.3 1.3 -1.4
v 0.3 1.8 -1.4
v 1 0 -1.4
v 1 1.8 -1.4
v -0.7 0 1.3
v 1 0 1.3
v -0.7 0 -1.4
v 1 0 -1.4
v -0.7 1.8 1.3
v 0 1.8 1.3
v 0.3 1.8 1.3
v 1 1.8 1.3
v 0.5 1.8 1.2
v 0.8 1.8 1.2
v 0.5 1.8 1.1
v 0.8 1.8 1.1
v 0.5 1.8 1
v 0.8 1.8 1
v 0.5 1.8 0.9
v 0.8 1.8 0.9
v 0.5 1.8 0.8
v 0.8 1.8 0.8
v 0.5 1.8 0.7
v 0.8 1.8 0.7
v -0.7 1.8 -1.4
v 0 1.8 -1.4
v 0.3 1.8 -1.4
v 1 1.8 -1.4

# faces
f 3/4/1 2/4/1 1/4/1
f 4/4/1 2/4/1 3/4/1
f 5/4/1 3/4/1 1/4/1
f 6/1/1 4/1/1 3/1/1
f 6/4/1 3/4/1 5/4/1
f 7/4/1 2/4/1 4/4/1
f 7/1/1 4/1/1 6/1/1
f 8/4/1 2/4/1 7/4/1
f 9/4/1 5/4/1 1/4/1
f 10/1/1 6/1/1 5/1/1
f 10/4/1 5/4/1 9/4/1
f 11/1/1 6/1/1 10/1/1
f 12/4/1 7/4/1 6/4/1
f 12/1/1 6/1/1 11/1/1
f 13/1/1 8/1/1 7/1/1
f 13/4/1 7/4/1 12/4/1
f 14/1/1 8/1/1 13/1/1
f 15/4/1 2/4/1 8/4/1
f 15/1/1 8/1/1 14/1/1
f 16/4/1 2/4/1 15/4/1
f 17/1/1 11/1/1 10/1/1
f 17/1/1 10/1/1 9/1/1
f 18/4/1 14/4/1 13/4/1
f 18/1/1 11/1/1 17/1/1
f 18/4/1 12/4/1 11/4/1
f 18/4/1 13/4/1 12/4/1
f 19/4/1 14/4/1 18/4/1
f 20/4/1 14/4/1 19/4/1
f 21/1/1 15/1/1 14/1/1
f 21/4/1 14/4/1 20/4/1
f 21/1/1 16/1/1 15/1/1
f 22/1/1 16/1/1 21/1/1
f 23/4/1 9/4/1 1/4/1
f 24/1/1 17/1/1 9/1/1
f 24/4/1 9/4/1 23/4/1
f 25/4/1 19/4/1 18/4/1
f 25/1/1 17/1/1 24/1/1
f 25/4/1 18/4/1 17/4/1
f 26/4/1 19/4/1 25/4/1
f 27/1/1 20/1/1 19/1/1
f 27/4/1 19/4/1 26/4/1
f 28/1/1 20/1/1 27/1/1
f 29/1/1 20/1/1 28/1/1
f 30/4/1 22/4/1 21/4/1
f 30/1/1 20/1/1 29/1/1
f 30/4/1 21/4/1 20/4/1
f 31/4/1 22/4/1 30/4/1
f 32/1/1 16/1/1 22/1/1
f 32/4/1 22/4/1 31/4/1
f 33/4/1 2/4/1 16/4/1
f 33/1/1 16/1/1 32/1/1
f 34/4/1 2/4/1 33/4/1
f 35/4/1 26/4/1 25/4/1
f 35/4/1 25/4/1 24/4/1
f 36/1/1 28/1/1 27/1/1
f 36/4/1 26/4/1 35/4/1
f 36/1/1 27/1/1 26/1/1
f 37/1/1 28/1/1 36/1/1
f 38/4/1 29/4/1 28/4/1
f 38/1/1 28/1/1 37/1/1
f 39/1/1 31/1/1 30/1/1
f 39/4/1 29/4/1 38/4/1
f 39/1/1 30/1/1 29/1/1
f 40/1/1 31/1/1 39/1/1
f 41/4/1 35/4/1 24/4/1
f 42/1/1 37/1/1 36/1/1
f 42/4/1 35/4/1 41/4/1
f 42/1/1 36/1/1 35/1/1
f 43/1/1 37/1/1 42/1/1
f 44/4/1 38/4/1 37/4/1
f 44/1/1 37/1/1 43/1/1
f 44/4/1 40/4/1 39/4/1
f 44/4/1 39/4/1 38/4/1
f 45/4/1 32/4/1 31/4/1
f 45/1/1 31/1/1 40/1/1
f 45/4/1 33/4/1 32/4/1
f 46/4/1 33/4/1 45/4/1
f 47/1/1 24/1/1 23/1/1
f 47/4/1 41/4/1 24/4/1
f 48/1/1 43/1/1 42/1/1
f 48/4/1 41/4/1 47/4/1
f 48/1/1 42/1/1 41/1/1
f 49/1/1 43/1/1 48/1/1
f 50/4/1 44/4/1 43/4/1
f 50/1/1 43/1/1 49/1/1
f 51/4/1 40/4/1 44/4/1
f 51/4/1 44/4/1 50/4/1
f 51/1/1 46/1/1 45/1/1
f 51/1/1 45/1/1 40/1/1
f 52/1/1 46/1/1 51/1/1
f 53/4/1 23/4/1 1/4/1
f 54/1/1 47/1/1 23/1/1
f 54/4/1 23/4/1 53/4/1
f 54/1/1 48/1/1 47/1/1
f 54/1/1 49/1/1 48/1/1
f 55/1/1 49/1/1 54/1/1
f 56/4/1 50/4/1 49/4/1
f 56/1/1 49/1/1 55/1/1
f 56/4/1 52/4/1 51/4/1
f 56/4/1 51/4/1 50/4/1
f 57/1/1 46/1/1 52/1/1
f 57/4/1 52/4/1 56/4/1
f 58/4/1 33/4/1 46/4/1
f 58/1/1 46/1/1 57/1/1
f 59/4/1 53/4/1 1/4/1
f 60/1/1 55/1/1 54/1/1
f 60/4/1 53/4/1 59/4/1
f 60/1/1 54/1/1 53/1/1
f 61/1/1 55/1/1 60/1/1
f 62/4/1 56/4/1 55/4/1
f 62/1/1 55/1/1 61/1/1
f 62/4/1 57/4/1 56/4/1
f 62/4/1 58/4/1 57/4/1
f 63/4/1 58/4/1 62/4/1
f 64/4/1 33/4/1 58/4/1
f 64/4/1 58/4/1 63/4/1
f 65/1/1 34/1/1 33/1/1
f 65/4/1 33/4/1 64/4/1
f 66/4/1 2/4/1 34/4/1
f 66/1/1 34/1/1 65/1/1
f 67/4/1 59/4/1 1/4/1
f 68/1/1 61/1/1 60/1/1
f 68/4/1 59/4/1 67/4/1
f 68/1/1 60/1/1 59/1/1
f 69/1/1 61/1/1 68/1/1
f 70/4/1 62/4/1 61/4/1
f 70/1/1 61/1/1 69/1/1
f 71/1/1 63/1/1 62/1/1
f 71/4/1 64/4/1 63/4/1
f 72/4/1 64/4/1 71/4/1
f 73/4/1 64/4/1 72/4/1
f 74/1/1 65/1/1 64/1/1
f 74/4/1 64/4/1 73/4/1
f 75/4/1 67/4/1 1/4/1
f 76/1/1 69/1/1 68/1/1
f 76/4/1 67/4/1 75/4/1
f 76/1/1 68/1/1 67/1/1
f 77/1/1 69/1/1 76/1/1
f 78/4/1 70/4/1 69/4/1
f 78/1/1 69/1/1 77/1/1
f 79/4/1 62/4/1 70/4/1
f 79/4/1 70/4/1 78/4/1
f 79/1/1 71/1/1 62/1/1
f 79/1/1 72/1/1 71/1/1
f 80/1/1 72/1/1 79/1/1
f 81/4/1 73/4/1 72/4/1
f 81/1/1 72/1/1 80/1/1
f 82/4/1 73/4/1 81/4/1
f 83/4/1 73/4/1 82/4/1
f 84/1/1 74/1/1 73/1/1
f 84/4/1 73/4/1 83/4/1
f 85/1/1 65/1/1 74/1/1
f 85/1/1 74/1/1 84/1/1
f 86/4/1 66/4/1 65/4/1
f 86/1/1 65/1/1 85/1/1
f 87/1/1 77/1/1 76/1/1
f 87/4/1 75/4/1 1/4/1
f 87/1/1 76/1/1 75/1/1
f 88/4/1 78/4/1 77/4/1
f 88/1/1 77/1/1 87/1/1
f 88/4/1 80/4/1 79/4/1
f 88/4/1 79/4/1 78/4/1
f 89/1/1 81/1/1 80/1/1
f 89/4/1 80/4/1 88/4/1
f 89/1/1 82/1/1 81/1/1
f 90/4/1 83/4/1 82/4/1
f 90/1/1 82/1/1 89/1/1
f 91/1/1 84/1/1 83/1/1
f 91/4/1 83/4/1 90/4/1
f 91/1/1 85/1/1 84/1/1
f 92/4/1 86/4/1 85/4/1
f 92/1/1 85/1/1 91/1/1
f 93/4/1 90/4/1 89/4/1
f 93/4/1 88/4/1 87/4/1
f 93/4/1 89/4/1 88/4/1
f 93/1/1 91/1/1 90/1/1
f 94/4/1 92/4/1 91/4/1
f 94/1/1 91/1/1 93/1/1
f 95/4/1 87/4/1 1/4/1
f 95/4/1 93/4/1 87/4/1
f 95/4/1 94/4/1 93/4/1
f 96/4/1 92/4/1 94/4/1
f 96/4/1 94/4/1 95/4/1
f 96/4/1 86/4/1 92/4/1
f 96/4/1 66/4/1 86/4/1
f 96/4/1 2/4/1 66/4/1
f 97/4/2 98/4/2 99/4/2
f 99/4/2 98/4/2 100/4/2
f 97/4/2 99/4/2 101/4/2
f 99/1/2 100/1/2 102/1/2
f 101/4/2 99/4/2 102/4/2
f 100/4/2 98/4/2 103/4/2
f 102/1/2 100/1/2 103/1/2
f 103/4/2 98/4/2 104/4/2
f 97/4/2 101/4/2 105/4/2
f 101/1/2 102/1/2 106/1/2
f 105/4/2 101/4/2 106/4/2
f 106/1/2 102/1/2 107/1/2
f 102/4/2 103/4/2 108/4/2
f 107/1/2 102/1/2 108/1/2
f 103/1/2 104/1/2 109/1/2
f 108/4/2 103/4/2 109/4/2
f 109/1/2 104/1/2 110/1/2
f 104/4/2 98/4/2 111/4/2
f 110/1/2 104/1/2 111/1/2
f 111/4/2 98/4/2 112/4/2
f 106/1/2 107/1/2 113/1/2
f 105/1/2 106/1/2 113/1/2
f 109/4/2 110/4/2 114/4/2
f 113/1/2 107/1/2 114/1/2
f 107/4/2 108/4/2 114/4/2
f 108/4/2 109/4/2 114/4/2
f 114/4/2 110/4/2 115/4/2
f 115/4/2 110/4/2 116/4/2
f 110/1/2 111/1/2 117/1/2
f 116/4/2 110/4/2 117/4/2
f 111/1/2 112/1/2 117/1/2
f 117/1/2 112/1/2 118/1/2
f 97/4/2 105/4/2 119/4/2
f 105/1/2 113/1/2 120/1/2
f 119/4/2 105/4/2 120/4/2
f 114/4/2 115/4/2 121/4/2
f 120/1/2 113/1/2 121/1/2
f 113/4/2 114/4/2 121/4/2
f 121/4/2 115/4/2 122/4/2
f 115/1/2 116/1/2 123/1/2
f 122/4/2 115/4/2 123/4/2
f 123/1/2 116/1/2 124/1/2
f 124/1/2 116/1/2 125/1/2
f 117/4/2 118/4/2 126/4/2
f 125/1/2 116/1/2 126/1/2
f 116/4/2 117/4/2 126/4/2
f 126/4/2 118/4/2 127/4/2
f 118/1/2 112/1/2 128/1/2
f 127/4/2 118/4/2 128/4/2
f 112/4/2 98/4/2 129/4/2
f 128/1/2 112/1/2 129/1/2
f 129/4/2 98/4/2 130/4/2
f 121/4/2 122/4/2 131/4/2
f 120/4/2 121/4/2 131/4/2
f 123/1/2 124/1/2 132/1/2
f 131/4/2 122/4/2 132/4/2
f 122/1/2 123/1/2 132/1/2
f 132/1/2 124/1/2 133/1/2
f 124/4/2 125/4/2 134/4/2
f 133/1/2 124/1/2 134/1/2
f 126/1/2 127/1/2 135/1/2
f 134/4/2 125/4/2 135/4/2
f 125/1/2 126/1/2 135/1/2
f 135/1/2 127/1/2 136/1/2
f 120/4/2 131/4/2 137/4/2
f 132/1/2 133/1/2 138/1/2
f 137/4/2 131/4/2 138/4/2
f 131/1/2 132/1/2 138/1/2
f 138/1/2 133/1/2 139/1/2
f 133/4/2 134/4/2 140/4/2
f 139/1/2 133/1/2 140/1/2
f 135/4/2 136/4/2 140/4/2
f 134/4/2 135/4/2 140/4/2
f 127/4/2 128/4/2 141/4/2
f 136/1/2 127/1/2 141/1/2
f 128/4/2 129/4/2 141/4/2
f 141/4/2 129/4/2 142/4/2
f 119/1/2 120/1/2 143/1/2
f 120/4/2 137/4/2 143/4/2
f 138/1/2 139/1/2 144/1/2
f 143/4/2 137/4/2 144/4/2
f 137/1/2 138/1/2 144/1/2
f 144/1/2 139/1/2 145/1/2
f 139/4/2 140/4/2 146/4/2
f 145/1/2 139/1/2 146/1/2
f 140/4/2 136/4/2 147/4/2
f 146/4/2 140/4/2 147/4/2
f 141/1/2 142/1/2 147/1/2
f 136/1/2 141/1/2 147/1/2
f 147/1/2 142/1/2 148/1/2
f 97/4/2 119/4/2 149/4/2
f 119/1/2 143/1/2 150/1/2
f 149/4/2 119/4/2 150/4/2
f 143/1/2 144/1/2 150/1/2
f 144/1/2 145/1/2 150/1/2
f 150/1/2 145/1/2 151/1/2
f 145/4/2 146/4/2 152/4/2
f 151/1/2 145/1/2 152/1/2
f 147/4/2 148/4/2 152/4/2
f 146/4/2 147/4/2 152/4/2
f 148/1/2 142/1/2 153/1/2
f 152/4/2 148/4/2 153/4/2
f 142/4/2 129/4/2 154/4/2
f 153/1/2 142/1/2 154/1/2
f 97/4/2 149/4/2 155/4/2
f 150/1/2 151/1/2 156/1/2
f 155/4/2 149/4/2 156/4/2
f 149/1/2 150/1/2 156/1/2
f 156/1/2 151/1/2 157/1/2
f 151/4/2 152/4/2 158/4/2
f 157/1/2 151/1/2 158/1/2
f 152/4/2 153/4/2 158/4/2
f 153/4/2 154/4/2 158/4/2
f 158/4/2 154/4/2 159/4/2
f 154/4/2 129/4/2 160/4/2
f 159/4/2 154/4/2 160/4/2
f 129/1/2 130/1/2 161/1/2
f 160/4/2 129/4/2 161/4/2
f 130/4/2 98/4/2 162/4/2
f 161/1/2 130/1/2 162/1/2
f 97/4/2 155/4/2 163/4/2
f 156/1/2 157/1/2 164/1/2
f 163/4/2 155/4/2 164/4/2
f 155/1/2 156/1/2 164/1/2
f 164/1/2 157/1/2 165/1/2
f 157/4/2 158/4/2 166/4/2
f 165/1/2 157/1/2 166/1/2
f 158/1/2 159/1/2 167/1/2
f 159/4/2 160/4/2 167/4/2
f 167/4/2 160/4/2 168/4/2
f 168/4/2 160/4/2 169/4/2
f 160/1/2 161/1/2 170/1/2
f 169/4/2 160/4/2 170/4/2
f 97/4/2 163/4/2 171/4/2
f 164/1/2 165/1/2 172/1/2
f 171/4/2 163/4/2 172/4/2
f 163/1/2 164/1/2 172/1/2
f 172/1/2 165/1/2 173/1/2
f 165/4/2 166/4/2 174/4/2
f 173/1/2 165/1/2 174/1/2
f 166/4/2 158/4/2 175/4/2
f 174/4/2 166/4/2 175/4/2
f 158/1/2 167/1/2 175/1/2
f 167/1/2 168/1/2 175/1/2
f 175/1/2 168/1/2 176/1/2
f 168/4/2 169/4/2 177/4/2
f 176/1/2 168/1/2 177/1/2
f 177/4/2 169/4/2 178/4/2
f 178/4/2 169/4/2 179/4/2
f 169/1/2 170/1/2 180/1/2
f 179/4/2 169/4/2 180/4/2
f 170/1/2 161/1/2 181/1/2
f 180/1/2 170/1/2 181/1/2
f 161/4/2 162/4/2 182/4/2
f 181/1/2 161/1/2 182/1/2
f 172/1/2 173/1/2 183/1/2
f 97/4/2 171/4/2 183/4/2
f 171/1/2 172/1/2 183/1/2
f 173/4/2 174/4/2 184/4/2
f 183/1/2 173/1/2 184/1/2
f 175/4/2 176/4/2 184/4/2
f 174/4/2 175/4/2 184/4/2
f 176/1/2 177/1/2 185/1/2
f 184/4/2 176/4/2 185/4/2
f 177/1/2 178/1/2 185/1/2
f 178/4/2 179/4/2 186/4/2
f 185/1/2 178/1/2 186/1/2
f 179/1/2 180/1/2 187/1/2
f 186/4/2 179/4/2 187/4/2
f 180/1/2 181/1/2 187/1/2
f 181/4/2 182/4/2 188/4/2
f 187/1/2 181/1/2 188/1/2
f 185/4/2 186/4/2 189/4/2
f 183/4/2 184/4/2 189/4/2
f 184/4/2 185/4/2 189/4/2
f 186/1/2 187/1/2 189/1/2
f 187/4/2 188/4/2 190/4/2
f 189/1/2 187/1/2 190/1/2
f 97/4/2 183/4/2 191/4/2
f 183/4/2 189/4/2 191/4/2
f 189/4/2 190/4/2 191/4/2
f 190/4/2 188/4/2 192/4/2
f 191/4/2 190/4/2 192/4/2
f 188/4/2 182/4/2 192/4/2
f 182/4/2 162/4/2 192/4/2
f 162/4/2 98/4/2 192/4/2
f 195/4/3 194/4/3 193/4/3
f 196/4/3 194/4/3 195/4/3
f 197/4/3 195/4/3 193/4/3
f 197/5/3 196/5/3 195/5/3
f 198/5/3 196/5/3 197/5/3
f 199/4/3 197/4/3 193/4/3
f 199/4/3 198/4/3 197/4/3
f 200/4/3 198/4/3 199/4/3
f 201/4/4 202/4/4 203/4/4
f 203/4/4 202/4/4 204/4/4
f 201/4/4 203/4/4 205/4/4
f 203/5/4 204/5/4 205/5/4
f 205/5/4 204/5/4 206/5/4
f 201/4/4 205/4/4 207/4/4
f 205/4/4 206/4/4 207/4/4
f 207/4/4 206/4/4 208/4/4
f 211/4/5 210/4/5 209/4/5
f 212/4/5 210/4/5 211/4/5
f 215/4/6 216/4/6 217/4/6
f 217/4/6 216/4/6 218/4/6
f 215/4/6 217/4/6 219/4/6
f 217/2/6 218/2/6 219/2/6
f 218/4/6 216/4/6 220/4/6
f 219/2/6 218/2/6 220/2/6
f 215/4/6 219/4/6 221/4/6
f 219/4/6 220/4/6 221/4/6
f 220/4/6 216/4/6 222/4/6
f 221/4/6 220/4/6 222/4/6
f 215/4/6 221/4/6 223/4/6
f 221/2/6 222/2/6 223/2/6
f 222/4/6 216/4/6 224/4/6
f 223/2/6 222/2/6 224/2/6
f 215/4/6 223/4/6 225/4/6
f 223/4/6 224/4/6 225/4/6
f 224/4/6 216/4/6 226/4/6
f 225/4/6 224/4/6 226/4/6
f 215/4/6 225/4/6 227/4/6
f 225/2/6 226/2/6 227/2/6
f 226/4/6 216/4/6 228/4/6
f 227/2/6 226/2/6 228/2/6
f 213/4/6 214/4/6 229/4/6
f 214/5/6 215/5/6 230/5/6
f 229/4/6 214/4/6 230/4/6
f 215/4/6 227/4/6 231/4/6
f 230/5/6 215/5/6 231/5/6
f 227/4/6 228/4/6 231/4/6
f 228/4/6 216/4/6 232/4/6
f 231/4/6 228/4/6 232/4/6
