# MagicaVoxel @ Ephtracy

# group
o 

# material
mtllib ClosedBoxs-5.mtl
usemtl palette

# normals
vn -1 0 0
vn 1 0 0
vn 0 0 1
vn 0 0 -1
vn 0 -1 0
vn 0 1 0

# texcoords
vt 0.908203 0.5
vt 0.912109 0.5
vt 0.970703 0.5
vt 0.974609 0.5

# verts
v -0.7 0 1.3
v -0.7 0 -1.4
v -0.7 0.5 0.8
v -0.7 0.5 -0.2
v -0.7 1.5 0.8
v -0.7 1.5 -0.2
v -0.7 1.8 1.3
v -0.7 1.8 -1.4
v 1 0 1.3
v 1 0 -1.4
v 1 0.5 0.1
v 1 0.5 -0.9
v 1 1.5 0.1
v 1 1.5 -0.9
v 1 1.8 1.3
v 1 1.8 -1.4
v -0.7 0 1.3
v -0.7 1.8 1.3
v -0.4 0.5 1.3
v -0.4 1.5 1.3
v 0 1.2 1.3
v 0 1.5 1.3
v 0 1.8 1.3
v 0.3 1.2 1.3
v 0.3 1.5 1.3
v 0.3 1.8 1.3
v 0.6 0.5 1.3
v 0.6 1.5 1.3
v 1 0 1.3
v 1 1.8 1.3
v -0.7 0 -1.4
v -0.7 1.8 -1.4
v 0 1.2 -1.4
v 0 1.8 -1.4
v 0.3 1.2 -1.4
v 0.3 1.8 -1.4
v 1 0 -1.4
v 1 1.8 -1.4
v -0.7 0 1.3
v 1 0 1.3
v -0.7 0 -1.4
v 1 0 -1.4
v -0.7 1.8 1.3
v 0 1.8 1.3
v 0.3 1.8 1.3
v 1 1.8 1.3
v -0.4 1.8 0.1
v 0 1.8 0.1
v 0.3 1.8 0.1
v 0.6 1.8 0.1
v -0.4 1.8 -0.9
v 0 1.8 -0.9
v 0.3 1.8 -0.9
v 0.6 1.8 -0.9
v -0.7 1.8 -1.4
v 0 1.8 -1.4
v 0.3 1.8 -1.4
v 1 1.8 -1.4

# faces
f 3/3/1 2/3/1 1/3/1
f 4/3/1 2/3/1 3/3/1
f 5/3/1 3/3/1 1/3/1
f 5/1/1 4/1/1 3/1/1
f 6/3/1 2/3/1 4/3/1
f 6/1/1 4/1/1 5/1/1
f 7/3/1 5/3/1 1/3/1
f 7/3/1 6/3/1 5/3/1
f 8/3/1 2/3/1 6/3/1
f 8/3/1 6/3/1 7/3/1
f 9/3/2 10/3/2 11/3/2
f 11/3/2 10/3/2 12/3/2
f 9/3/2 11/3/2 13/3/2
f 11/1/2 12/1/2 13/1/2
f 12/3/2 10/3/2 14/3/2
f 13/1/2 12/1/2 14/1/2
f 9/3/2 13/3/2 15/3/2
f 13/3/2 14/3/2 15/3/2
f 14/3/2 10/3/2 16/3/2
f 15/3/2 14/3/2 16/3/2
f 19/3/3 18/3/3 17/3/3
f 20/3/3 18/3/3 19/3/3
f 21/1/3 20/1/3 19/1/3
f 22/3/3 18/3/3 20/3/3
f 22/1/3 20/1/3 21/1/3
f 23/3/3 18/3/3 22/3/3
f 24/1/3 21/1/3 19/1/3
f 24/2/3 22/2/3 21/2/3
f 25/4/3 23/4/3 22/4/3
f 25/2/3 22/2/3 24/2/3
f 26/4/3 23/4/3 25/4/3
f 27/3/3 19/3/3 17/3/3
f 27/1/3 24/1/3 19/1/3
f 27/1/3 25/1/3 24/1/3
f 28/3/3 26/3/3 25/3/3
f 28/1/3 25/1/3 27/1/3
f 29/3/3 27/3/3 17/3/3
f 29/3/3 28/3/3 27/3/3
f 30/3/3 26/3/3 28/3/3
f 30/3/3 28/3/3 29/3/3
f 31/3/4 32/3/4 33/3/4
f 33/3/4 32/3/4 34/3/4
f 31/3/4 33/3/4 35/3/4
f 33/4/4 34/4/4 35/4/4
f 35/4/4 34/4/4 36/4/4
f 31/3/4 35/3/4 37/3/4
f 35/3/4 36/3/4 37/3/4
f 37/3/4 36/3/4 38/3/4
f 41/3/5 40/3/5 39/3/5
f 42/3/5 40/3/5 41/3/5
f 43/3/6 44/3/6 47/3/6
f 44/4/6 45/4/6 48/4/6
f 47/3/6 44/3/6 48/3/6
f 45/3/6 46/3/6 49/3/6
f 48/4/6 45/4/6 49/4/6
f 49/3/6 46/3/6 50/3/6
f 47/1/6 48/1/6 51/1/6
f 43/3/6 47/3/6 51/3/6
f 48/2/6 49/2/6 52/2/6
f 51/1/6 48/1/6 52/1/6
f 49/1/6 50/1/6 53/1/6
f 52/2/6 49/2/6 53/2/6
f 50/3/6 46/3/6 54/3/6
f 53/1/6 50/1/6 54/1/6
f 51/3/6 52/3/6 55/3/6
f 43/3/6 51/3/6 55/3/6
f 52/4/6 53/4/6 56/4/6
f 55/3/6 52/3/6 56/3/6
f 53/3/6 54/3/6 57/3/6
f 56/4/6 53/4/6 57/4/6
f 54/3/6 46/3/6 58/3/6
f 57/3/6 54/3/6 58/3/6
