# MagicaVoxel @ Ephtracy

# group
o 

# material
mtllib closed_box_box_blue.mtl
usemtl palette

# normals
vn -1 0 0
vn 1 0 0
vn 0 0 1
vn 0 0 -1
vn 0 -1 0
vn 0 1 0

# texcoords
vt 0.306641 0.5
vt 0.822266 0.5
vt 0.970703 0.5
vt 0.974609 0.5
vt 0.990234 0.5

# verts
v -0.6 0 0.4
v -0.6 0 0.1
v -0.6 0 -0.1
v -0.6 0 -0.4
v -0.6 1 0.4
v -0.6 1 0.1
v -0.6 1 -0.1
v -0.6 1 -0.4
v 0.7 0 0.4
v 0.7 0 0.1
v 0.7 0 -0.1
v 0.7 0 -0.4
v 0.7 1 0.4
v 0.7 1 0.1
v 0.7 1 -0.1
v 0.7 1 -0.4
v -0.6 0 0.4
v -0.6 1 0.4
v -0.5 0.7 0.4
v -0.5 0.9 0.4
v -0.3 0.7 0.4
v -0.3 0.9 0.4
v -0.2 0.5 0.4
v -0.2 0.9 0.4
v -0.1 0.4 0.4
v -0.1 0.5 0.4
v -0.1 0.6 0.4
v -0.1 0.8 0.4
v 0.1 0.6 0.4
v 0.1 0.8 0.4
v 0.2 0.5 0.4
v 0.2 0.9 0.4
v 0.3 0.4 0.4
v 0.3 0.9 0.4
v 0.7 0 0.4
v 0.7 1 0.4
v -0.6 0 -0.4
v -0.6 1 -0.4
v -0.2 0.4 -0.4
v -0.2 1 -0.4
v -0.1 0.5 -0.4
v -0.1 0.9 -0.4
v -5.96046e-08 0.6 -0.4
v -5.96046e-08 0.8 -0.4
v 0.2 0.6 -0.4
v 0.2 0.8 -0.4
v 0.3 0.4 -0.4
v 0.3 0.5 -0.4
v 0.3 0.9 -0.4
v 0.3 1 -0.4
v 0.4 0.7 -0.4
v 0.4 0.9 -0.4
v 0.6 0.7 -0.4
v 0.6 0.9 -0.4
v 0.7 0 -0.4
v 0.7 1 -0.4
v -0.6 0 0.4
v 0.7 0 0.4
v -0.6 0 0.1
v 0.7 0 0.1
v -0.6 0 -0.1
v 0.7 0 -0.1
v -0.6 0 -0.4
v 0.7 0 -0.4
v -0.6 1 0.4
v 0.7 1 0.4
v -0.6 1 0.1
v 0.7 1 0.1
v -0.6 1 -0.1
v -0.2 1 -0.1
v 0.1 1 -0.1
v 0.7 1 -0.1
v 0.1 1 -0.2
v 0.3 1 -0.2
v -0.6 1 -0.4
v -0.2 1 -0.4
v 0.3 1 -0.4
v 0.7 1 -0.4

# faces
f 5/1/1 2/1/1 1/1/1
f 6/4/1 3/4/1 2/4/1
f 6/1/1 2/1/1 5/1/1
f 7/1/1 4/1/1 3/1/1
f 7/4/1 3/4/1 6/4/1
f 8/1/1 4/1/1 7/1/1
f 9/1/2 10/1/2 13/1/2
f 10/4/2 11/4/2 14/4/2
f 13/1/2 10/1/2 14/1/2
f 11/1/2 12/1/2 15/1/2
f 14/4/2 11/4/2 15/4/2
f 15/1/2 12/1/2 16/1/2
f 19/1/3 18/1/3 17/1/3
f 20/1/3 18/1/3 19/1/3
f 21/1/3 19/1/3 17/1/3
f 21/5/3 20/5/3 19/5/3
f 22/1/3 18/1/3 20/1/3
f 22/5/3 20/5/3 21/5/3
f 23/1/3 21/1/3 17/1/3
f 23/1/3 22/1/3 21/1/3
f 24/1/3 18/1/3 22/1/3
f 24/1/3 22/1/3 23/1/3
f 25/1/3 23/1/3 17/1/3
f 26/2/3 24/2/3 23/2/3
f 26/1/3 23/1/3 25/1/3
f 27/2/3 24/2/3 26/2/3
f 28/2/3 24/2/3 27/2/3
f 29/2/3 27/2/3 26/2/3
f 29/3/3 28/3/3 27/3/3
f 30/2/3 24/2/3 28/2/3
f 30/3/3 28/3/3 29/3/3
f 31/3/3 26/3/3 25/3/3
f 31/2/3 29/2/3 26/2/3
f 31/2/3 30/2/3 29/2/3
f 32/1/3 18/1/3 24/1/3
f 32/2/3 30/2/3 31/2/3
f 32/2/3 24/2/3 30/2/3
f 33/3/3 31/3/3 25/3/3
f 33/1/3 25/1/3 17/1/3
f 33/3/3 32/3/3 31/3/3
f 34/1/3 18/1/3 32/1/3
f 34/3/3 32/3/3 33/3/3
f 35/1/3 33/1/3 17/1/3
f 35/1/3 34/1/3 33/1/3
f 36/1/3 18/1/3 34/1/3
f 36/1/3 34/1/3 35/1/3
f 37/1/4 38/1/4 39/1/4
f 39/1/4 38/1/4 40/1/4
f 39/3/4 40/3/4 41/3/4
f 41/3/4 40/3/4 42/3/4
f 41/2/4 42/2/4 43/2/4
f 43/2/4 42/2/4 44/2/4
f 41/2/4 43/2/4 45/2/4
f 43/3/4 44/3/4 45/3/4
f 44/2/4 42/2/4 46/2/4
f 45/3/4 44/3/4 46/3/4
f 37/1/4 39/1/4 47/1/4
f 39/3/4 41/3/4 47/3/4
f 45/2/4 46/2/4 48/2/4
f 47/3/4 41/3/4 48/3/4
f 41/2/4 45/2/4 48/2/4
f 46/2/4 42/2/4 49/2/4
f 48/2/4 46/2/4 49/2/4
f 42/3/4 40/3/4 49/3/4
f 49/3/4 40/3/4 50/3/4
f 47/1/4 48/1/4 51/1/4
f 48/1/4 49/1/4 51/1/4
f 49/1/4 50/1/4 51/1/4
f 51/1/4 50/1/4 52/1/4
f 47/1/4 51/1/4 53/1/4
f 51/5/4 52/5/4 53/5/4
f 52/1/4 50/1/4 54/1/4
f 53/5/4 52/5/4 54/5/4
f 37/1/4 47/1/4 55/1/4
f 47/1/4 53/1/4 55/1/4
f 53/1/4 54/1/4 55/1/4
f 54/1/4 50/1/4 56/1/4
f 55/1/4 54/1/4 56/1/4
f 59/1/5 58/1/5 57/1/5
f 60/1/5 58/1/5 59/1/5
f 61/4/5 60/4/5 59/4/5
f 62/4/5 60/4/5 61/4/5
f 63/1/5 62/1/5 61/1/5
f 64/1/5 62/1/5 63/1/5
f 65/1/6 66/1/6 67/1/6
f 67/1/6 66/1/6 68/1/6
f 67/4/6 68/4/6 69/4/6
f 69/4/6 68/4/6 70/4/6
f 70/4/6 68/4/6 71/4/6
f 71/4/6 68/4/6 72/4/6
f 70/3/6 71/3/6 73/3/6
f 71/1/6 72/1/6 73/1/6
f 73/1/6 72/1/6 74/1/6
f 69/1/6 70/1/6 75/1/6
f 70/3/6 73/3/6 76/3/6
f 75/1/6 70/1/6 76/1/6
f 73/3/6 74/3/6 76/3/6
f 74/1/6 72/1/6 77/1/6
f 76/3/6 74/3/6 77/3/6
f 77/1/6 72/1/6 78/1/6
