# MagicaVoxel @ Ephtracy

# group
o 

# material
mtllib ClosedBoxs-6.mtl
usemtl palette

# normals
vn -1 0 0
vn 1 0 0
vn 0 0 1
vn 0 0 -1
vn 0 -1 0
vn 0 1 0

# texcoords
vt 0.876953 0.5
vt 0.880859 0.5
vt 0.970703 0.5
vt 0.974609 0.5

# verts
v -0.7 0 1.3
v -0.7 0 -1.4
v -0.7 0.5 0.8
v -0.7 0.5 -0.5
v -0.7 1 0.8
v -0.7 1 0.4
v -0.7 1 -0.0999999
v -0.7 1 -0.5
v -0.7 1.5 0.4
v -0.7 1.5 -0.0999999
v -0.7 1.8 1.3
v -0.7 1.8 -1.4
v 1 0 1.3
v 1 0 -1.4
v 1 0.5 0.6
v 1 0.5 -0.9
v 1 1 0.6
v 1 1 0.1
v 1 1 -0.4
v 1 1 -0.9
v 1 1.5 0.1
v 1 1.5 -0.4
v 1 1.8 1.3
v 1 1.8 -1.4
v -0.7 0 1.3
v -0.7 1.8 1.3
v -0.6 0.5 1.3
v -0.6 1 1.3
v -0.1 1 1.3
v -0.1 1.5 1.3
v 0 1.2 1.3
v 0 1.5 1.3
v 0 1.8 1.3
v 0.3 1.2 1.3
v 0.3 1.5 1.3
v 0.3 1.8 1.3
v 0.4 1 1.3
v 0.4 1.5 1.3
v 0.9 0.5 1.3
v 0.9 1 1.3
v 1 0 1.3
v 1 1.8 1.3
v -0.7 0 -1.4
v -0.7 1.8 -1.4
v -0.2 1 -1.4
v -0.2 1.3 -1.4
v 0 1.3 -1.4
v 0 1.8 -1.4
v 0.1 1.3 -1.4
v 0.1 1.6 -1.4
v 0.3 1.6 -1.4
v 0.3 1.8 -1.4
v 0.4 1.3 -1.4
v 0.4 1.6 -1.4
v 0.7 1 -1.4
v 0.7 1.3 -1.4
v 1 0 -1.4
v 1 1.8 -1.4
v -0.7 0 1.3
v 1 0 1.3
v -0.7 0 -1.4
v 1 0 -1.4
v -0.7 1.8 1.3
v 0 1.8 1.3
v 0.3 1.8 1.3
v 1 1.8 1.3
v 0.1 1.8 0.6
v 0.3 1.8 0.6
v 0.6 1.8 0.6
v -0.4 1.8 0.1
v 0 1.8 0.1
v 0.1 1.8 0.1
v -0.4 1.8 -0.4
v 0 1.8 -0.4
v 0.1 1.8 -0.4
v 0.1 1.8 -0.9
v 0.3 1.8 -0.9
v 0.6 1.8 -0.9
v -0.7 1.8 -1.4
v 0 1.8 -1.4
v 0.3 1.8 -1.4
v 1 1.8 -1.4

# faces
f 3/3/1 2/3/1 1/3/1
f 4/3/1 2/3/1 3/3/1
f 5/3/1 3/3/1 1/3/1
f 5/1/1 4/1/1 3/1/1
f 6/1/1 4/1/1 5/1/1
f 7/1/1 4/1/1 6/1/1
f 8/3/1 2/3/1 4/3/1
f 8/1/1 4/1/1 7/1/1
f 9/1/1 7/1/1 6/1/1
f 9/3/1 6/3/1 5/3/1
f 10/3/1 8/3/1 7/3/1
f 10/1/1 7/1/1 9/1/1
f 11/3/1 5/3/1 1/3/1
f 11/3/1 9/3/1 5/3/1
f 11/3/1 10/3/1 9/3/1
f 12/3/1 2/3/1 8/3/1
f 12/3/1 10/3/1 11/3/1
f 12/3/1 8/3/1 10/3/1
f 13/3/2 14/3/2 15/3/2
f 15/3/2 14/3/2 16/3/2
f 13/3/2 15/3/2 17/3/2
f 15/1/2 16/1/2 17/1/2
f 17/1/2 16/1/2 18/1/2
f 18/1/2 16/1/2 19/1/2
f 16/3/2 14/3/2 20/3/2
f 19/1/2 16/1/2 20/1/2
f 18/1/2 19/1/2 21/1/2
f 17/3/2 18/3/2 21/3/2
f 19/3/2 20/3/2 22/3/2
f 21/1/2 19/1/2 22/1/2
f 13/3/2 17/3/2 23/3/2
f 17/3/2 21/3/2 23/3/2
f 21/3/2 22/3/2 23/3/2
f 20/3/2 14/3/2 24/3/2
f 23/3/2 22/3/2 24/3/2
f 22/3/2 20/3/2 24/3/2
f 27/3/3 26/3/3 25/3/3
f 28/3/3 26/3/3 27/3/3
f 29/1/3 28/1/3 27/1/3
f 29/3/3 26/3/3 28/3/3
f 30/3/3 26/3/3 29/3/3
f 31/1/3 30/1/3 29/1/3
f 32/3/3 26/3/3 30/3/3
f 32/1/3 30/1/3 31/1/3
f 33/3/3 26/3/3 32/3/3
f 34/1/3 31/1/3 29/1/3
f 34/2/3 32/2/3 31/2/3
f 35/4/3 33/4/3 32/4/3
f 35/2/3 32/2/3 34/2/3
f 36/4/3 33/4/3 35/4/3
f 37/1/3 29/1/3 27/1/3
f 37/1/3 34/1/3 29/1/3
f 37/1/3 35/1/3 34/1/3
f 38/3/3 36/3/3 35/3/3
f 38/1/3 35/1/3 37/1/3
f 39/3/3 27/3/3 25/3/3
f 39/1/3 37/1/3 27/1/3
f 40/3/3 38/3/3 37/3/3
f 40/1/3 37/1/3 39/1/3
f 41/3/3 39/3/3 25/3/3
f 41/3/3 40/3/3 39/3/3
f 42/3/3 36/3/3 38/3/3
f 42/3/3 40/3/3 41/3/3
f 42/3/3 38/3/3 40/3/3
f 43/3/4 44/3/4 45/3/4
f 45/3/4 44/3/4 46/3/4
f 45/1/4 46/1/4 47/1/4
f 46/3/4 44/3/4 47/3/4
f 47/3/4 44/3/4 48/3/4
f 45/1/4 47/1/4 49/1/4
f 47/4/4 48/4/4 49/4/4
f 49/4/4 48/4/4 50/4/4
f 49/1/4 50/1/4 51/1/4
f 50/4/4 48/4/4 51/4/4
f 51/4/4 48/4/4 52/4/4
f 45/1/4 49/1/4 53/1/4
f 49/1/4 51/1/4 53/1/4
f 51/3/4 52/3/4 54/3/4
f 53/1/4 51/1/4 54/1/4
f 43/3/4 45/3/4 55/3/4
f 45/1/4 53/1/4 55/1/4
f 53/3/4 54/3/4 56/3/4
f 55/1/4 53/1/4 56/1/4
f 43/3/4 55/3/4 57/3/4
f 55/3/4 56/3/4 57/3/4
f 54/3/4 52/3/4 58/3/4
f 57/3/4 56/3/4 58/3/4
f 56/3/4 54/3/4 58/3/4
f 61/3/5 60/3/5 59/3/5
f 62/3/5 60/3/5 61/3/5
f 64/4/6 65/4/6 67/4/6
f 65/3/6 66/3/6 68/3/6
f 67/4/6 65/4/6 68/4/6
f 68/3/6 66/3/6 69/3/6
f 63/3/6 64/3/6 70/3/6
f 64/4/6 67/4/6 71/4/6
f 70/3/6 64/3/6 71/3/6
f 67/2/6 68/2/6 72/2/6
f 71/4/6 67/4/6 72/4/6
f 63/3/6 70/3/6 73/3/6
f 70/1/6 71/1/6 73/1/6
f 71/2/6 72/2/6 74/2/6
f 73/1/6 71/1/6 74/1/6
f 72/2/6 68/2/6 75/2/6
f 74/2/6 72/2/6 75/2/6
f 74/4/6 75/4/6 76/4/6
f 75/2/6 68/2/6 76/2/6
f 68/1/6 69/1/6 77/1/6
f 76/2/6 68/2/6 77/2/6
f 69/3/6 66/3/6 78/3/6
f 77/1/6 69/1/6 78/1/6
f 73/3/6 74/3/6 79/3/6
f 63/3/6 73/3/6 79/3/6
f 76/4/6 77/4/6 80/4/6
f 79/3/6 74/3/6 80/3/6
f 74/4/6 76/4/6 80/4/6
f 77/3/6 78/3/6 81/3/6
f 80/4/6 77/4/6 81/4/6
f 78/3/6 66/3/6 82/3/6
f 81/3/6 78/3/6 82/3/6
