# MagicaVoxel @ Ephtracy

# group
o OpenBox

# material
mtllib PackingTable-2-OpenBox.mtl
usemtl palette

# normals
vn 0 0 1
vn 0 0 -1
vn 1 0 0
vn -1 0 0
vn 0 -1 0
vn 0 1 0

# texcoords
vt 0.0605469 0.5
vt 0.744141 0.5

# verts
v 1.4 2.9 1.9
v -1.3 2.9 1.9
v 1.4 3 1.9
v -1.3 3 1.9
v 1.4 2.8 1.7
v -1.3 2.8 1.7
v 1.4 2.9 1.7
v -1.3 2.9 1.7
v 1.4 2.7 1.4
v -1.3 2.7 1.4
v 1.4 2.8 1.4
v -1.3 2.8 1.4
v 1.4 2.6 1
v -1.3 2.6 1
v 1.4 2.7 1
v -1.3 2.7 1
v 1.4 0.9 0.8
v -1.3 0.9 0.8
v -0.3 1.3 0.8
v -0.8 1.3 0.8
v -0.2 1.4 0.8
v -0.3 1.4 0.8
v -0.8 1.4 0.8
v -0.9 1.4 0.8
v -0.1 1.5 0.8
v -0.2 1.5 0.8
v -0.3 1.5 0.8
v -0.8 1.5 0.8
v -0.9 1.5 0.8
v -1 1.5 0.8
v -2.38419e-07 1.6 0.8
v -0.1 1.6 0.8
v -0.2 1.6 0.8
v -0.9 1.6 0.8
v -1 1.6 0.8
v -1.1 1.6 0.8
v -2.38419e-07 2.1 0.8
v -0.1 2.1 0.8
v -0.2 2.1 0.8
v -0.9 2.1 0.8
v -1 2.1 0.8
v -1.1 2.1 0.8
v -0.1 2.2 0.8
v -0.2 2.2 0.8
v -0.3 2.2 0.8
v -0.8 2.2 0.8
v -0.9 2.2 0.8
v -1 2.2 0.8
v -0.2 2.3 0.8
v -0.3 2.3 0.8
v -0.8 2.3 0.8
v -0.9 2.3 0.8
v -0.3 2.4 0.8
v -0.8 2.4 0.8
v 1.7 2.6 0.8
v 1.4 2.6 0.8
v -1.3 2.6 0.8
v -1.6 2.6 0.8
v 1.9 2.7 0.8
v 1.7 2.7 0.8
v 1.4 2.7 0.8
v -1.3 2.7 0.8
v -1.6 2.7 0.8
v -1.8 2.7 0.8
v 2.1 2.8 0.8
v 1.9 2.8 0.8
v 1.7 2.8 0.8
v -1.6 2.8 0.8
v -1.8 2.8 0.8
v -2 2.8 0.8
v 2.3 2.9 0.8
v 2.1 2.9 0.8
v 1.9 2.9 0.8
v -1.8 2.9 0.8
v -2 2.9 0.8
v -2.2 2.9 0.8
v 2.3 3 0.8
v 2.1 3 0.8
v -2 3 0.8
v -2.2 3 0.8
v 1.3 1 -0.8
v -1.2 1 -0.8
v 0.9 1.3 -0.8
v 0.4 1.3 -0.8
v 1 1.4 -0.8
v 0.9 1.4 -0.8
v 0.4 1.4 -0.8
v 0.3 1.4 -0.8
v 1.1 1.5 -0.8
v 1 1.5 -0.8
v 0.9 1.5 -0.8
v 0.4 1.5 -0.8
v 0.3 1.5 -0.8
v 0.2 1.5 -0.8
v 1.2 1.6 -0.8
v 1.1 1.6 -0.8
v 1 1.6 -0.8
v 0.3 1.6 -0.8
v 0.2 1.6 -0.8
v 0.0999999 1.6 -0.8
v 1.2 2.1 -0.8
v 1.1 2.1 -0.8
v 1 2.1 -0.8
v 0.3 2.1 -0.8
v 0.2 2.1 -0.8
v 0.0999999 2.1 -0.8
v 1.1 2.2 -0.8
v 1 2.2 -0.8
v 0.9 2.2 -0.8
v 0.4 2.2 -0.8
v 0.3 2.2 -0.8
v 0.2 2.2 -0.8
v 1 2.3 -0.8
v 0.9 2.3 -0.8
v 0.4 2.3 -0.8
v 0.3 2.3 -0.8
v 0.9 2.4 -0.8
v 0.4 2.4 -0.8
v 1.3 2.6 -0.8
v -1.2 2.6 -0.8
v 1.3 2.6 -0.9
v -1.2 2.6 -0.9
v 1.3 2.7 -0.9
v -1.2 2.7 -0.9
v 1.4 2.4 -1
v -1.3 2.4 -1
v 1.4 2.6 -1
v -1.3 2.6 -1
v 1.4 2.2 -1.1
v -1.3 2.2 -1.1
v 1.4 2.4 -1.1
v -1.3 2.4 -1.1
v 1.4 2 -1.2
v -1.3 2 -1.2
v 1.4 2.2 -1.2
v -1.3 2.2 -1.2
v 1.4 1.9 -1.3
v -1.3 1.9 -1.3
v 1.4 2 -1.3
v -1.3 2 -1.3
v 1.4 2.9 1.7
v -1.3 2.9 1.7
v 1.4 3 1.7
v -1.3 3 1.7
v 1.4 2.8 1.4
v -1.3 2.8 1.4
v 1.4 2.9 1.4
v -1.3 2.9 1.4
v 1.4 2.7 1
v -1.3 2.7 1
v 1.4 2.8 1
v -1.3 2.8 1
v 1.3 2.6 0.8
v -1.2 2.6 0.8
v 1.3 2.7 0.8
v -1.2 2.7 0.8
v 1.3 1 0.7
v -1.2 1 0.7
v -0.3 1.3 0.7
v -0.8 1.3 0.7
v -0.2 1.4 0.7
v -0.3 1.4 0.7
v -0.8 1.4 0.7
v -0.9 1.4 0.7
v -0.1 1.5 0.7
v -0.2 1.5 0.7
v -0.3 1.5 0.7
v -0.8 1.5 0.7
v -0.9 1.5 0.7
v -1 1.5 0.7
v -2.38419e-07 1.6 0.7
v -0.1 1.6 0.7
v -0.2 1.6 0.7
v -0.9 1.6 0.7
v -1 1.6 0.7
v -1.1 1.6 0.7
v -2.38419e-07 2.1 0.7
v -0.1 2.1 0.7
v -0.2 2.1 0.7
v -0.9 2.1 0.7
v -1 2.1 0.7
v -1.1 2.1 0.7
v -0.1 2.2 0.7
v -0.2 2.2 0.7
v -0.3 2.2 0.7
v -0.8 2.2 0.7
v -0.9 2.2 0.7
v -1 2.2 0.7
v -0.2 2.3 0.7
v -0.3 2.3 0.7
v -0.8 2.3 0.7
v -0.9 2.3 0.7
v -0.3 2.4 0.7
v -0.8 2.4 0.7
v 1.3 2.6 0.7
v -1.2 2.6 0.7
v 1.4 0.9 -0.9
v -1.3 0.9 -0.9
v 0.9 1.3 -0.9
v 0.4 1.3 -0.9
v 1 1.4 -0.9
v 0.9 1.4 -0.9
v 0.4 1.4 -0.9
v 0.3 1.4 -0.9
v 1.1 1.5 -0.9
v 1 1.5 -0.9
v 0.9 1.5 -0.9
v 0.4 1.5 -0.9
v 0.3 1.5 -0.9
v 0.2 1.5 -0.9
v 1.2 1.6 -0.9
v 1.1 1.6 -0.9
v 1 1.6 -0.9
v 0.3 1.6 -0.9
v 0.2 1.6 -0.9
v 0.0999999 1.6 -0.9
v 1.2 2.1 -0.9
v 1.1 2.1 -0.9
v 1 2.1 -0.9
v 0.3 2.1 -0.9
v 0.2 2.1 -0.9
v 0.0999999 2.1 -0.9
v 1.1 2.2 -0.9
v 1 2.2 -0.9
v 0.9 2.2 -0.9
v 0.4 2.2 -0.9
v 0.3 2.2 -0.9
v 0.2 2.2 -0.9
v 1 2.3 -0.9
v 0.9 2.3 -0.9
v 0.4 2.3 -0.9
v 0.3 2.3 -0.9
v 0.9 2.4 -0.9
v 0.4 2.4 -0.9
v 1.7 2.6 -0.9
v 1.4 2.6 -0.9
v -1.3 2.6 -0.9
v -1.6 2.6 -0.9
v 1.9 2.7 -0.9
v 1.7 2.7 -0.9
v 1.4 2.7 -0.9
v -1.3 2.7 -0.9
v -1.6 2.7 -0.9
v -1.8 2.7 -0.9
v 2.1 2.8 -0.9
v 1.9 2.8 -0.9
v 1.7 2.8 -0.9
v -1.6 2.8 -0.9
v -1.8 2.8 -0.9
v -2 2.8 -0.9
v 2.3 2.9 -0.9
v 2.1 2.9 -0.9
v 1.9 2.9 -0.9
v -1.8 2.9 -0.9
v -2 2.9 -0.9
v -2.2 2.9 -0.9
v 2.3 3 -0.9
v 2.1 3 -0.9
v -2 3 -0.9
v -2.2 3 -0.9
v 1.4 2.6 -1
v -1.3 2.6 -1
v 1.4 2.7 -1
v -1.3 2.7 -1
v 1.4 2.4 -1.1
v -1.3 2.4 -1.1
v 1.4 2.6 -1.1
v -1.3 2.6 -1.1
v 1.4 2.2 -1.2
v -1.3 2.2 -1.2
v 1.4 2.4 -1.2
v -1.3 2.4 -1.2
v 1.4 2 -1.3
v -1.3 2 -1.3
v 1.4 2.2 -1.3
v -1.3 2.2 -1.3
v 1.4 1.9 -1.4
v -1.3 1.9 -1.4
v 1.4 2 -1.4
v -1.3 2 -1.4
v 2.3 2.9 0.8
v 2.3 3 0.8
v 2.3 2.9 -0.9
v 2.3 3 -0.9
v 2.1 2.8 0.8
v 2.1 2.9 0.8
v 2.1 2.8 -0.9
v 2.1 2.9 -0.9
v 1.9 2.7 0.8
v 1.9 2.8 0.8
v 1.9 2.7 -0.9
v 1.9 2.8 -0.9
v 1.7 2.6 0.8
v 1.7 2.7 0.8
v 1.7 2.6 -0.9
v 1.7 2.7 -0.9
v 1.4 2.9 1.9
v 1.4 3 1.9
v 1.4 2.8 1.7
v 1.4 2.9 1.7
v 1.4 3 1.7
v 1.4 2.7 1.4
v 1.4 2.8 1.4
v 1.4 2.9 1.4
v 1.4 2.6 1
v 1.4 2.7 1
v 1.4 2.8 1
v 1.4 0.9 0.8
v 1.4 2.6 0.8
v 1.4 2.7 0.8
v 1.4 0.9 -0.9
v 1.4 2.6 -0.9
v 1.4 2.7 -0.9
v 1.4 2.4 -1
v 1.4 2.6 -1
v 1.4 2.7 -1
v 1.4 2.2 -1.1
v 1.4 2.4 -1.1
v 1.4 2.6 -1.1
v 1.4 2 -1.2
v 1.4 2.2 -1.2
v 1.4 2.4 -1.2
v 1.4 1.9 -1.3
v 1.4 2 -1.3
v 1.4 2.2 -1.3
v 1.4 1.9 -1.4
v 1.4 2 -1.4
v -1.2 2.6 0.8
v -1.2 2.7 0.8
v -1.2 1 0.7
v -1.2 2.6 0.7
v -1.2 1 -0.8
v -1.2 2.6 -0.8
v -1.2 2.6 -0.9
v -1.2 2.7 -0.9
v -1.6 2.7 0.8
v -1.6 2.8 0.8
v -1.6 2.7 -0.9
v -1.6 2.8 -0.9
v -1.8 2.8 0.8
v -1.8 2.9 0.8
v -1.8 2.8 -0.9
v -1.8 2.9 -0.9
v -2 2.9 0.8
v -2 3 0.8
v -2 2.9 -0.9
v -2 3 -0.9
v 2.1 2.9 0.8
v 2.1 3 0.8
v 2.1 2.9 -0.9
v 2.1 3 -0.9
v 1.9 2.8 0.8
v 1.9 2.9 0.8
v 1.9 2.8 -0.9
v 1.9 2.9 -0.9
v 1.7 2.7 0.8
v 1.7 2.8 0.8
v 1.7 2.7 -0.9
v 1.7 2.8 -0.9
v 1.3 2.6 0.8
v 1.3 2.7 0.8
v 1.3 1 0.7
v 1.3 2.6 0.7
v 1.3 1 -0.8
v 1.3 2.6 -0.8
v 1.3 2.6 -0.9
v 1.3 2.7 -0.9
v -1.3 2.9 1.9
v -1.3 3 1.9
v -1.3 2.8 1.7
v -1.3 2.9 1.7
v -1.3 3 1.7
v -1.3 2.7 1.4
v -1.3 2.8 1.4
v -1.3 2.9 1.4
v -1.3 2.6 1
v -1.3 2.7 1
v -1.3 2.8 1
v -1.3 0.9 0.8
v -1.3 2.6 0.8
v -1.3 2.7 0.8
v -1.3 0.9 -0.9
v -1.3 2.6 -0.9
v -1.3 2.7 -0.9
v -1.3 2.4 -1
v -1.3 2.6 -1
v -1.3 2.7 -1
v -1.3 2.2 -1.1
v -1.3 2.4 -1.1
v -1.3 2.6 -1.1
v -1.3 2 -1.2
v -1.3 2.2 -1.2
v -1.3 2.4 -1.2
v -1.3 1.9 -1.3
v -1.3 2 -1.3
v -1.3 2.2 -1.3
v -1.3 1.9 -1.4
v -1.3 2 -1.4
v -1.6 2.6 0.8
v -1.6 2.7 0.8
v -1.6 2.6 -0.9
v -1.6 2.7 -0.9
v -1.8 2.7 0.8
v -1.8 2.8 0.8
v -1.8 2.7 -0.9
v -1.8 2.8 -0.9
v -2 2.8 0.8
v -2 2.9 0.8
v -2 2.8 -0.9
v -2 2.9 -0.9
v -2.2 2.9 0.8
v -2.2 3 0.8
v -2.2 2.9 -0.9
v -2.2 3 -0.9
v 1.4 0.9 0.8
v 1.4 0.9 -0.9
v -1.3 0.9 0.8
v -1.3 0.9 -0.9
v 1.4 1.9 -1.3
v 1.4 1.9 -1.4
v -1.3 1.9 -1.3
v -1.3 1.9 -1.4
v 1.4 2 -1.2
v 1.4 2 -1.3
v -1.3 2 -1.2
v -1.3 2 -1.3
v 1.4 2.2 -1.1
v 1.4 2.2 -1.2
v -1.3 2.2 -1.1
v -1.3 2.2 -1.2
v 1.4 2.4 -1
v 1.4 2.4 -1.1
v -1.3 2.4 -1
v -1.3 2.4 -1.1
v 1.7 2.6 0.8
v 1.7 2.6 -0.9
v 1.4 2.6 1
v 1.4 2.6 0.8
v 1.4 2.6 -0.9
v 1.4 2.6 -1
v -1.3 2.6 1
v -1.3 2.6 0.8
v -1.3 2.6 -0.9
v -1.3 2.6 -1
v -1.6 2.6 0.8
v -1.6 2.6 -0.9
v 1.9 2.7 0.8
v 1.9 2.7 -0.9
v 1.7 2.7 0.8
v 1.7 2.7 -0.9
v 1.4 2.7 1.4
v 1.4 2.7 1
v -1.3 2.7 1.4
v -1.3 2.7 1
v -1.6 2.7 0.8
v -1.6 2.7 -0.9
v -1.8 2.7 0.8
v -1.8 2.7 -0.9
v 2.1 2.8 0.8
v 2.1 2.8 -0.9
v 1.9 2.8 0.8
v 1.9 2.8 -0.9
v 1.4 2.8 1.7
v 1.4 2.8 1.4
v -1.3 2.8 1.7
v -1.3 2.8 1.4
v -1.8 2.8 0.8
v -1.8 2.8 -0.9
v -2 2.8 0.8
v -2 2.8 -0.9
v 2.3 2.9 0.8
v 2.3 2.9 -0.9
v 2.1 2.9 0.8
v 2.1 2.9 -0.9
v 1.4 2.9 1.9
v 1.4 2.9 1.7
v -1.3 2.9 1.9
v -1.3 2.9 1.7
v -2 2.9 0.8
v -2 2.9 -0.9
v -2.2 2.9 0.8
v -2.2 2.9 -0.9
v 1.3 1 0.7
v 1.3 1 -0.8
v -1.2 1 0.7
v -1.2 1 -0.8
v 1.4 2 -1.3
v 1.4 2 -1.4
v -1.3 2 -1.3
v -1.3 2 -1.4
v 1.4 2.2 -1.2
v 1.4 2.2 -1.3
v -1.3 2.2 -1.2
v -1.3 2.2 -1.3
v 1.4 2.4 -1.1
v 1.4 2.4 -1.2
v -1.3 2.4 -1.1
v -1.3 2.4 -1.2
v 1.4 2.6 -1
v 1.4 2.6 -1.1
v 1.3 2.6 0.8
v 1.3 2.6 0.7
v 1.3 2.6 -0.8
v 1.3 2.6 -0.9
v -1.2 2.6 0.8
v -1.2 2.6 0.7
v -1.2 2.6 -0.8
v -1.2 2.6 -0.9
v -1.3 2.6 -1
v -1.3 2.6 -1.1
v 1.7 2.7 0.8
v 1.7 2.7 -0.9
v 1.4 2.7 1
v 1.4 2.7 0.8
v 1.4 2.7 -0.9
v 1.4 2.7 -1
v 1.3 2.7 0.8
v 1.3 2.7 -0.9
v -1.2 2.7 0.8
v -1.2 2.7 -0.9
v -1.3 2.7 1
v -1.3 2.7 0.8
v -1.3 2.7 -0.9
v -1.3 2.7 -1
v -1.6 2.7 0.8
v -1.6 2.7 -0.9
v 1.9 2.8 0.8
v 1.9 2.8 -0.9
v 1.7 2.8 0.8
v 1.7 2.8 -0.9
v 1.4 2.8 1.4
v 1.4 2.8 1
v -1.3 2.8 1.4
v -1.3 2.8 1
v -1.6 2.8 0.8
v -1.6 2.8 -0.9
v -1.8 2.8 0.8
v -1.8 2.8 -0.9
v 2.1 2.9 0.8
v 2.1 2.9 -0.9
v 1.9 2.9 0.8
v 1.9 2.9 -0.9
v 1.4 2.9 1.7
v 1.4 2.9 1.4
v -1.3 2.9 1.7
v -1.3 2.9 1.4
v -1.8 2.9 0.8
v -1.8 2.9 -0.9
v -2 2.9 0.8
v -2 2.9 -0.9
v 2.3 3 0.8
v 2.3 3 -0.9
v 2.1 3 0.8
v 2.1 3 -0.9
v 1.4 3 1.9
v 1.4 3 1.7
v -1.3 3 1.9
v -1.3 3 1.7
v -2 3 0.8
v -2 3 -0.9
v -2.2 3 0.8
v -2.2 3 -0.9

# faces
f 3/1/1 2/1/1 1/1/1
f 4/1/1 2/1/1 3/1/1
f 7/1/1 6/1/1 5/1/1
f 8/1/1 6/1/1 7/1/1
f 11/1/1 10/1/1 9/1/1
f 12/1/1 10/1/1 11/1/1
f 15/1/1 14/1/1 13/1/1
f 16/1/1 14/1/1 15/1/1
f 19/1/1 18/1/1 17/1/1
f 20/1/1 18/1/1 19/1/1
f 21/1/1 19/1/1 17/1/1
f 22/2/1 20/2/1 19/2/1
f 22/1/1 19/1/1 21/1/1
f 23/1/1 18/1/1 20/1/1
f 23/2/1 20/2/1 22/2/1
f 24/1/1 18/1/1 23/1/1
f 25/1/1 21/1/1 17/1/1
f 26/2/1 22/2/1 21/2/1
f 26/1/1 21/1/1 25/1/1
f 27/1/1 23/1/1 22/1/1
f 27/2/1 22/2/1 26/2/1
f 28/2/1 24/2/1 23/2/1
f 28/1/1 23/1/1 27/1/1
f 29/1/1 18/1/1 24/1/1
f 29/2/1 24/2/1 28/2/1
f 30/1/1 18/1/1 29/1/1
f 31/1/1 25/1/1 17/1/1
f 32/2/1 26/2/1 25/2/1
f 32/1/1 25/1/1 31/1/1
f 33/1/1 28/1/1 27/1/1
f 33/2/1 26/2/1 32/2/1
f 33/1/1 27/1/1 26/1/1
f 33/1/1 29/1/1 28/1/1
f 34/2/1 30/2/1 29/2/1
f 34/1/1 29/1/1 33/1/1
f 35/1/1 18/1/1 30/1/1
f 35/2/1 30/2/1 34/2/1
f 36/1/1 18/1/1 35/1/1
f 37/2/1 32/2/1 31/2/1
f 37/1/1 31/1/1 17/1/1
f 38/1/1 34/1/1 33/1/1
f 38/2/1 32/2/1 37/2/1
f 38/1/1 33/1/1 32/1/1
f 38/1/1 35/1/1 34/1/1
f 39/1/1 35/1/1 38/1/1
f 40/1/1 35/1/1 39/1/1
f 41/2/1 36/2/1 35/2/1
f 41/1/1 35/1/1 40/1/1
f 42/1/1 18/1/1 36/1/1
f 42/2/1 36/2/1 41/2/1
f 43/1/1 38/1/1 37/1/1
f 43/2/1 39/2/1 38/2/1
f 44/1/1 40/1/1 39/1/1
f 44/2/1 39/2/1 43/2/1
f 45/1/1 40/1/1 44/1/1
f 46/1/1 40/1/1 45/1/1
f 47/2/1 41/2/1 40/2/1
f 47/1/1 40/1/1 46/1/1
f 48/1/1 42/1/1 41/1/1
f 48/2/1 41/2/1 47/2/1
f 49/1/1 44/1/1 43/1/1
f 49/2/1 45/2/1 44/2/1
f 50/1/1 46/1/1 45/1/1
f 50/2/1 45/2/1 49/2/1
f 51/2/1 47/2/1 46/2/1
f 51/1/1 46/1/1 50/1/1
f 52/1/1 48/1/1 47/1/1
f 52/2/1 47/2/1 51/2/1
f 53/1/1 50/1/1 49/1/1
f 53/2/1 51/2/1 50/2/1
f 54/1/1 52/1/1 51/1/1
f 54/2/1 51/2/1 53/2/1
f 56/1/1 37/1/1 17/1/1
f 56/1/1 49/1/1 43/1/1
f 56/1/1 54/1/1 53/1/1
f 56/1/1 53/1/1 49/1/1
f 56/1/1 43/1/1 37/1/1
f 57/1/1 52/1/1 54/1/1
f 57/1/1 42/1/1 48/1/1
f 57/1/1 54/1/1 56/1/1
f 57/1/1 48/1/1 52/1/1
f 57/1/1 18/1/1 42/1/1
f 60/1/1 56/1/1 55/1/1
f 61/1/1 56/1/1 60/1/1
f 62/1/1 58/1/1 57/1/1
f 63/1/1 58/1/1 62/1/1
f 66/1/1 60/1/1 59/1/1
f 67/1/1 60/1/1 66/1/1
f 68/1/1 64/1/1 63/1/1
f 69/1/1 64/1/1 68/1/1
f 72/1/1 66/1/1 65/1/1
f 73/1/1 66/1/1 72/1/1
f 74/1/1 70/1/1 69/1/1
f 75/1/1 70/1/1 74/1/1
f 77/1/1 72/1/1 71/1/1
f 78/1/1 72/1/1 77/1/1
f 79/1/1 76/1/1 75/1/1
f 80/1/1 76/1/1 79/1/1
f 83/1/1 82/1/1 81/1/1
f 84/1/1 82/1/1 83/1/1
f 85/1/1 83/1/1 81/1/1
f 86/2/1 84/2/1 83/2/1
f 86/1/1 83/1/1 85/1/1
f 87/1/1 82/1/1 84/1/1
f 87/2/1 84/2/1 86/2/1
f 88/1/1 82/1/1 87/1/1
f 89/1/1 85/1/1 81/1/1
f 90/2/1 86/2/1 85/2/1
f 90/1/1 85/1/1 89/1/1
f 91/1/1 87/1/1 86/1/1
f 91/2/1 86/2/1 90/2/1
f 92/2/1 88/2/1 87/2/1
f 92/1/1 87/1/1 91/1/1
f 93/1/1 82/1/1 88/1/1
f 93/2/1 88/2/1 92/2/1
f 94/1/1 82/1/1 93/1/1
f 95/1/1 89/1/1 81/1/1
f 96/2/1 90/2/1 89/2/1
f 96/1/1 89/1/1 95/1/1
f 97/1/1 92/1/1 91/1/1
f 97/2/1 90/2/1 96/2/1
f 97/1/1 91/1/1 90/1/1
f 97/1/1 93/1/1 92/1/1
f 98/2/1 94/2/1 93/2/1
f 98/1/1 93/1/1 97/1/1
f 99/1/1 82/1/1 94/1/1
f 99/2/1 94/2/1 98/2/1
f 100/1/1 82/1/1 99/1/1
f 101/2/1 96/2/1 95/2/1
f 101/1/1 95/1/1 81/1/1
f 102/1/1 98/1/1 97/1/1
f 102/2/1 96/2/1 101/2/1
f 102/1/1 97/1/1 96/1/1
f 102/1/1 99/1/1 98/1/1
f 103/1/1 99/1/1 102/1/1
f 104/1/1 99/1/1 103/1/1
f 105/2/1 100/2/1 99/2/1
f 105/1/1 99/1/1 104/1/1
f 106/1/1 82/1/1 100/1/1
f 106/2/1 100/2/1 105/2/1
f 107/1/1 102/1/1 101/1/1
f 107/2/1 103/2/1 102/2/1
f 108/1/1 104/1/1 103/1/1
f 108/2/1 103/2/1 107/2/1
f 109/1/1 104/1/1 108/1/1
f 110/1/1 104/1/1 109/1/1
f 111/2/1 105/2/1 104/2/1
f 111/1/1 104/1/1 110/1/1
f 112/1/1 106/1/1 105/1/1
f 112/2/1 105/2/1 111/2/1
f 113/1/1 108/1/1 107/1/1
f 113/2/1 109/2/1 108/2/1
f 114/1/1 110/1/1 109/1/1
f 114/2/1 109/2/1 113/2/1
f 115/2/1 111/2/1 110/2/1
f 115/1/1 110/1/1 114/1/1
f 116/1/1 112/1/1 111/1/1
f 116/2/1 111/2/1 115/2/1
f 117/1/1 114/1/1 113/1/1
f 117/2/1 115/2/1 114/2/1
f 118/1/1 116/1/1 115/1/1
f 118/2/1 115/2/1 117/2/1
f 119/1/1 101/1/1 81/1/1
f 119/1/1 113/1/1 107/1/1
f 119/1/1 118/1/1 117/1/1
f 119/1/1 117/1/1 113/1/1
f 119/1/1 107/1/1 101/1/1
f 120/1/1 116/1/1 118/1/1
f 120/1/1 118/1/1 119/1/1
f 120/1/1 106/1/1 112/1/1
f 120/1/1 82/1/1 106/1/1
f 120/1/1 112/1/1 116/1/1
f 123/1/1 122/1/1 121/1/1
f 124/1/1 122/1/1 123/1/1
f 127/1/1 126/1/1 125/1/1
f 128/1/1 126/1/1 127/1/1
f 131/1/1 130/1/1 129/1/1
f 132/1/1 130/1/1 131/1/1
f 135/1/1 134/1/1 133/1/1
f 136/1/1 134/1/1 135/1/1
f 139/1/1 138/1/1 137/1/1
f 140/1/1 138/1/1 139/1/1
f 141/1/2 142/1/2 143/1/2
f 143/1/2 142/1/2 144/1/2
f 145/1/2 146/1/2 147/1/2
f 147/1/2 146/1/2 148/1/2
f 149/1/2 150/1/2 151/1/2
f 151/1/2 150/1/2 152/1/2
f 153/1/2 154/1/2 155/1/2
f 155/1/2 154/1/2 156/1/2
f 157/1/2 158/1/2 159/1/2
f 159/1/2 158/1/2 160/1/2
f 157/1/2 159/1/2 161/1/2
f 159/2/2 160/2/2 162/2/2
f 161/1/2 159/1/2 162/1/2
f 160/1/2 158/1/2 163/1/2
f 162/2/2 160/2/2 163/2/2
f 163/1/2 158/1/2 164/1/2
f 157/1/2 161/1/2 165/1/2
f 161/2/2 162/2/2 166/2/2
f 165/1/2 161/1/2 166/1/2
f 162/1/2 163/1/2 167/1/2
f 166/2/2 162/2/2 167/2/2
f 163/2/2 164/2/2 168/2/2
f 167/1/2 163/1/2 168/1/2
f 164/1/2 158/1/2 169/1/2
f 168/2/2 164/2/2 169/2/2
f 169/1/2 158/1/2 170/1/2
f 157/1/2 165/1/2 171/1/2
f 165/2/2 166/2/2 172/2/2
f 171/1/2 165/1/2 172/1/2
f 167/1/2 168/1/2 173/1/2
f 172/2/2 166/2/2 173/2/2
f 166/1/2 167/1/2 173/1/2
f 168/1/2 169/1/2 173/1/2
f 169/2/2 170/2/2 174/2/2
f 173/1/2 169/1/2 174/1/2
f 170/1/2 158/1/2 175/1/2
f 174/2/2 170/2/2 175/2/2
f 175/1/2 158/1/2 176/1/2
f 171/2/2 172/2/2 177/2/2
f 157/1/2 171/1/2 177/1/2
f 173/1/2 174/1/2 178/1/2
f 177/2/2 172/2/2 178/2/2
f 172/1/2 173/1/2 178/1/2
f 174/1/2 175/1/2 178/1/2
f 178/1/2 175/1/2 179/1/2
f 179/1/2 175/1/2 180/1/2
f 175/2/2 176/2/2 181/2/2
f 180/1/2 175/1/2 181/1/2
f 176/1/2 158/1/2 182/1/2
f 181/2/2 176/2/2 182/2/2
f 177/1/2 178/1/2 183/1/2
f 178/2/2 179/2/2 183/2/2
f 179/1/2 180/1/2 184/1/2
f 183/2/2 179/2/2 184/2/2
f 184/1/2 180/1/2 185/1/2
f 185/1/2 180/1/2 186/1/2
f 180/2/2 181/2/2 187/2/2
f 186/1/2 180/1/2 187/1/2
f 181/1/2 182/1/2 188/1/2
f 187/2/2 181/2/2 188/2/2
f 183/1/2 184/1/2 189/1/2
f 184/2/2 185/2/2 189/2/2
f 185/1/2 186/1/2 190/1/2
f 189/2/2 185/2/2 190/2/2
f 186/2/2 187/2/2 191/2/2
f 190/1/2 186/1/2 191/1/2
f 187/1/2 188/1/2 192/1/2
f 191/2/2 187/2/2 192/2/2
f 189/1/2 190/1/2 193/1/2
f 190/2/2 191/2/2 193/2/2
f 191/1/2 192/1/2 194/1/2
f 193/2/2 191/2/2 194/2/2
f 157/1/2 177/1/2 195/1/2
f 183/1/2 189/1/2 195/1/2
f 193/1/2 194/1/2 195/1/2
f 189/1/2 193/1/2 195/1/2
f 177/1/2 183/1/2 195/1/2
f 194/1/2 192/1/2 196/1/2
f 195/1/2 194/1/2 196/1/2
f 188/1/2 182/1/2 196/1/2
f 182/1/2 158/1/2 196/1/2
f 192/1/2 188/1/2 196/1/2
f 197/1/2 198/1/2 199/1/2
f 199/1/2 198/1/2 200/1/2
f 197/1/2 199/1/2 201/1/2
f 199/2/2 200/2/2 202/2/2
f 201/1/2 199/1/2 202/1/2
f 200/1/2 198/1/2 203/1/2
f 202/2/2 200/2/2 203/2/2
f 203/1/2 198/1/2 204/1/2
f 197/1/2 201/1/2 205/1/2
f 201/2/2 202/2/2 206/2/2
f 205/1/2 201/1/2 206/1/2
f 202/1/2 203/1/2 207/1/2
f 206/2/2 202/2/2 207/2/2
f 203/2/2 204/2/2 208/2/2
f 207/1/2 203/1/2 208/1/2
f 204/1/2 198/1/2 209/1/2
f 208/2/2 204/2/2 209/2/2
f 209/1/2 198/1/2 210/1/2
f 197/1/2 205/1/2 211/1/2
f 205/2/2 206/2/2 212/2/2
f 211/1/2 205/1/2 212/1/2
f 207/1/2 208/1/2 213/1/2
f 212/2/2 206/2/2 213/2/2
f 206/1/2 207/1/2 213/1/2
f 208/1/2 209/1/2 213/1/2
f 209/2/2 210/2/2 214/2/2
f 213/1/2 209/1/2 214/1/2
f 210/1/2 198/1/2 215/1/2
f 214/2/2 210/2/2 215/2/2
f 215/1/2 198/1/2 216/1/2
f 211/2/2 212/2/2 217/2/2
f 197/1/2 211/1/2 217/1/2
f 213/1/2 214/1/2 218/1/2
f 217/2/2 212/2/2 218/2/2
f 212/1/2 213/1/2 218/1/2
f 214/1/2 215/1/2 218/1/2
f 218/1/2 215/1/2 219/1/2
f 219/1/2 215/1/2 220/1/2
f 215/2/2 216/2/2 221/2/2
f 220/1/2 215/1/2 221/1/2
f 216/1/2 198/1/2 222/1/2
f 221/2/2 216/2/2 222/2/2
f 217/1/2 218/1/2 223/1/2
f 218/2/2 219/2/2 223/2/2
f 219/1/2 220/1/2 224/1/2
f 223/2/2 219/2/2 224/2/2
f 224/1/2 220/1/2 225/1/2
f 225/1/2 220/1/2 226/1/2
f 220/2/2 221/2/2 227/2/2
f 226/1/2 220/1/2 227/1/2
f 221/1/2 222/1/2 228/1/2
f 227/2/2 221/2/2 228/2/2
f 223/1/2 224/1/2 229/1/2
f 224/2/2 225/2/2 229/2/2
f 225/1/2 226/1/2 230/1/2
f 229/2/2 225/2/2 230/2/2
f 226/2/2 227/2/2 231/2/2
f 230/1/2 226/1/2 231/1/2
f 227/1/2 228/1/2 232/1/2
f 231/2/2 227/2/2 232/2/2
f 229/1/2 230/1/2 233/1/2
f 230/2/2 231/2/2 233/2/2
f 231/1/2 232/1/2 234/1/2
f 233/2/2 231/2/2 234/2/2
f 197/1/2 217/1/2 236/1/2
f 223/1/2 229/1/2 236/1/2
f 233/1/2 234/1/2 236/1/2
f 229/1/2 233/1/2 236/1/2
f 217/1/2 223/1/2 236/1/2
f 234/1/2 232/1/2 237/1/2
f 228/1/2 222/1/2 237/1/2
f 236/1/2 234/1/2 237/1/2
f 232/1/2 228/1/2 237/1/2
f 222/1/2 198/1/2 237/1/2
f 235/1/2 236/1/2 240/1/2
f 240/1/2 236/1/2 241/1/2
f 237/1/2 238/1/2 242/1/2
f 242/1/2 238/1/2 243/1/2
f 239/1/2 240/1/2 246/1/2
f 246/1/2 240/1/2 247/1/2
f 243/1/2 244/1/2 248/1/2
f 248/1/2 244/1/2 249/1/2
f 245/1/2 246/1/2 252/1/2
f 252/1/2 246/1/2 253/1/2
f 249/1/2 250/1/2 254/1/2
f 254/1/2 250/1/2 255/1/2
f 251/1/2 252/1/2 257/1/2
f 257/1/2 252/1/2 258/1/2
f 255/1/2 256/1/2 259/1/2
f 259/1/2 256/1/2 260/1/2
f 261/1/2 262/1/2 263/1/2
f 263/1/2 262/1/2 264/1/2
f 265/1/2 266/1/2 267/1/2
f 267/1/2 266/1/2 268/1/2
f 269/1/2 270/1/2 271/1/2
f 271/1/2 270/1/2 272/1/2
f 273/1/2 274/1/2 275/1/2
f 275/1/2 274/1/2 276/1/2
f 277/1/2 278/1/2 279/1/2
f 279/1/2 278/1/2 280/1/2
f 283/1/3 282/1/3 281/1/3
f 284/1/3 282/1/3 283/1/3
f 287/1/3 286/1/3 285/1/3
f 288/1/3 286/1/3 287/1/3
f 291/1/3 290/1/3 289/1/3
f 292/1/3 290/1/3 291/1/3
f 295/1/3 294/1/3 293/1/3
f 296/1/3 294/1/3 295/1/3
f 300/1/3 298/1/3 297/1/3
f 301/1/3 298/1/3 300/1/3
f 303/1/3 300/1/3 299/1/3
f 304/1/3 300/1/3 303/1/3
f 306/1/3 303/1/3 302/1/3
f 307/1/3 303/1/3 306/1/3
f 309/1/3 306/1/3 305/1/3
f 310/1/3 306/1/3 309/1/3
f 311/1/3 309/1/3 308/1/3
f 312/1/3 309/1/3 311/1/3
f 315/1/3 313/1/3 312/1/3
f 316/1/3 313/1/3 315/1/3
f 318/1/3 315/1/3 314/1/3
f 319/1/3 315/1/3 318/1/3
f 321/1/3 318/1/3 317/1/3
f 322/1/3 318/1/3 321/1/3
f 324/1/3 321/1/3 320/1/3
f 325/1/3 321/1/3 324/1/3
f 326/1/3 324/1/3 323/1/3
f 327/1/3 324/1/3 326/1/3
f 331/1/3 329/1/3 328/1/3
f 332/1/3 331/1/3 330/1/3
f 333/1/3 329/1/3 331/1/3
f 333/1/3 331/1/3 332/1/3
f 334/1/3 329/1/3 333/1/3
f 335/1/3 329/1/3 334/1/3
f 338/1/3 337/1/3 336/1/3
f 339/1/3 337/1/3 338/1/3
f 342/1/3 341/1/3 340/1/3
f 343/1/3 341/1/3 342/1/3
f 346/1/3 345/1/3 344/1/3
f 347/1/3 345/1/3 346/1/3
f 348/1/4 349/1/4 350/1/4
f 350/1/4 349/1/4 351/1/4
f 352/1/4 353/1/4 354/1/4
f 354/1/4 353/1/4 355/1/4
f 356/1/4 357/1/4 358/1/4
f 358/1/4 357/1/4 359/1/4
f 360/1/4 361/1/4 363/1/4
f 362/1/4 363/1/4 364/1/4
f 363/1/4 361/1/4 365/1/4
f 364/1/4 363/1/4 365/1/4
f 365/1/4 361/1/4 366/1/4
f 366/1/4 361/1/4 367/1/4
f 368/1/4 369/1/4 371/1/4
f 371/1/4 369/1/4 372/1/4
f 370/1/4 371/1/4 374/1/4
f 374/1/4 371/1/4 375/1/4
f 373/1/4 374/1/4 377/1/4
f 377/1/4 374/1/4 378/1/4
f 376/1/4 377/1/4 380/1/4
f 380/1/4 377/1/4 381/1/4
f 379/1/4 380/1/4 382/1/4
f 382/1/4 380/1/4 383/1/4
f 383/1/4 384/1/4 386/1/4
f 386/1/4 384/1/4 387/1/4
f 385/1/4 386/1/4 389/1/4
f 389/1/4 386/1/4 390/1/4
f 388/1/4 389/1/4 392/1/4
f 392/1/4 389/1/4 393/1/4
f 391/1/4 392/1/4 395/1/4
f 395/1/4 392/1/4 396/1/4
f 394/1/4 395/1/4 397/1/4
f 397/1/4 395/1/4 398/1/4
f 399/1/4 400/1/4 401/1/4
f 401/1/4 400/1/4 402/1/4
f 403/1/4 404/1/4 405/1/4
f 405/1/4 404/1/4 406/1/4
f 407/1/4 408/1/4 409/1/4
f 409/1/4 408/1/4 410/1/4
f 411/1/4 412/1/4 413/1/4
f 413/1/4 412/1/4 414/1/4
f 417/1/5 416/1/5 415/1/5
f 418/1/5 416/1/5 417/1/5
f 421/1/5 420/1/5 419/1/5
f 422/1/5 420/1/5 421/1/5
f 425/1/5 424/1/5 423/1/5
f 426/1/5 424/1/5 425/1/5
f 429/1/5 428/1/5 427/1/5
f 430/1/5 428/1/5 429/1/5
f 433/1/5 432/1/5 431/1/5
f 434/1/5 432/1/5 433/1/5
f 438/1/5 436/1/5 435/1/5
f 439/1/5 436/1/5 438/1/5
f 441/1/5 438/1/5 437/1/5
f 442/1/5 438/1/5 441/1/5
f 443/1/5 440/1/5 439/1/5
f 444/1/5 440/1/5 443/1/5
f 445/1/5 443/1/5 442/1/5
f 446/1/5 443/1/5 445/1/5
f 449/1/5 448/1/5 447/1/5
f 450/1/5 448/1/5 449/1/5
f 453/1/5 452/1/5 451/1/5
f 454/1/5 452/1/5 453/1/5
f 457/1/5 456/1/5 455/1/5
f 458/1/5 456/1/5 457/1/5
f 461/1/5 460/1/5 459/1/5
f 462/1/5 460/1/5 461/1/5
f 465/1/5 464/1/5 463/1/5
f 466/1/5 464/1/5 465/1/5
f 469/1/5 468/1/5 467/1/5
f 470/1/5 468/1/5 469/1/5
f 473/1/5 472/1/5 471/1/5
f 474/1/5 472/1/5 473/1/5
f 477/1/5 476/1/5 475/1/5
f 478/1/5 476/1/5 477/1/5
f 481/1/5 480/1/5 479/1/5
f 482/1/5 480/1/5 481/1/5
f 483/1/6 484/1/6 485/1/6
f 485/1/6 484/1/6 486/1/6
f 487/1/6 488/1/6 489/1/6
f 489/1/6 488/1/6 490/1/6
f 491/1/6 492/1/6 493/1/6
f 493/1/6 492/1/6 494/1/6
f 495/1/6 496/1/6 497/1/6
f 497/1/6 496/1/6 498/1/6
f 501/1/6 502/1/6 505/1/6
f 505/1/6 502/1/6 506/1/6
f 503/1/6 504/1/6 507/1/6
f 507/1/6 504/1/6 508/1/6
f 499/1/6 500/1/6 509/1/6
f 509/1/6 500/1/6 510/1/6
f 511/1/6 512/1/6 514/1/6
f 514/1/6 512/1/6 515/1/6
f 513/1/6 514/1/6 517/1/6
f 515/1/6 516/1/6 517/1/6
f 514/1/6 515/1/6 517/1/6
f 517/1/6 516/1/6 518/1/6
f 513/1/6 517/1/6 519/1/6
f 518/1/6 516/1/6 520/1/6
f 513/1/6 519/1/6 521/1/6
f 519/1/6 520/1/6 521/1/6
f 521/1/6 520/1/6 522/1/6
f 520/1/6 516/1/6 523/1/6
f 522/1/6 520/1/6 523/1/6
f 523/1/6 516/1/6 524/1/6
f 522/1/6 523/1/6 525/1/6
f 525/1/6 523/1/6 526/1/6
f 527/1/6 528/1/6 529/1/6
f 529/1/6 528/1/6 530/1/6
f 531/1/6 532/1/6 533/1/6
f 533/1/6 532/1/6 534/1/6
f 535/1/6 536/1/6 537/1/6
f 537/1/6 536/1/6 538/1/6
f 539/1/6 540/1/6 541/1/6
f 541/1/6 540/1/6 542/1/6
f 543/1/6 544/1/6 545/1/6
f 545/1/6 544/1/6 546/1/6
f 547/1/6 548/1/6 549/1/6
f 549/1/6 548/1/6 550/1/6
f 551/1/6 552/1/6 553/1/6
f 553/1/6 552/1/6 554/1/6
f 555/1/6 556/1/6 557/1/6
f 557/1/6 556/1/6 558/1/6
f 559/1/6 560/1/6 561/1/6
f 561/1/6 560/1/6 562/1/6
