# MagicaVoxel @ Ephtracy

# group
o 

# material
mtllib Truck-0.mtl
usemtl palette

# normals
vn -1 0 0
vn 1 0 0
vn 0 0 1
vn 0 0 -1
vn 0 -1 0
vn 0 1 0

# texcoords
vt 0.435547 0.5
vt 0.970703 0.5
vt 0.974609 0.5
vt 0.978516 0.5

# verts
v -5.2 1.9 -0.2
v -5.2 1.9 -0.3
v -5.2 10.4 -0.1
v -5.2 10.4 -0.2
v -5.2 10.5 0
v -5.2 10.5 -0.1
v -5.2 10.5 -0.2
v -5.2 10.5 -0.3
v -5.2 10.6 0
v -5.2 10.6 -0.1
v -5.2 10.7 0.1
v -5.2 10.7 0
v -5.2 10.7 -0.1
v -5.2 10.7 -0.2
v -5.2 10.8 0.2
v -5.2 10.8 0.1
v -5.2 10.8 0
v -5.2 10.9 0.2
v -5.2 10.9 0.1
v -5.2 10.9 0
v -5.2 10.9 -0.1
v -5.2 11 0.1
v -5.2 11 0
v -5.2 11.1 0.2
v -5.2 11.1 0.1
v -1 10.5 0
v -1 10.5 -0.1
v -1 10.6 0
v -1 10.6 -0.1
v -1.5 10.5 0
v -1.5 10.5 -0.1
v -1.5 10.6 0
v -1.5 10.6 -0.1
v 3.2 10.5 0
v 3.2 10.5 -0.1
v 3.2 10.6 0
v 3.2 10.6 -0.1
v 5.3 1.9 -0.2
v 5.3 1.9 -0.3
v 5.3 10.4 -0.1
v 5.3 10.4 -0.2
v 5.3 10.5 -0.2
v 5.3 10.5 -0.3
v 5.3 10.6 0
v 5.3 10.6 -0.1
v 5.3 10.7 0.1
v 5.3 10.7 0
v 5.3 10.7 -0.1
v 5.3 10.7 -0.2
v 5.3 10.8 0.2
v 5.3 10.8 0.1
v 5.3 10.9 0
v 5.3 10.9 -0.1
v 5.3 11 0.1
v 5.3 11 0
v 5.3 11.1 0.2
v 5.3 11.1 0.1
v -5.2 10.8 0.2
v -5.2 10.9 0.2
v -5.2 11.1 0.2
v -5 10.9 0.2
v -5 11.1 0.2
v 5.1 10.8 0.2
v 5.1 11.1 0.2
v 5.3 10.8 0.2
v 5.3 11.1 0.2
v -5.2 10.7 0.1
v -5.2 10.8 0.1
v 5.1 10.7 0.1
v 5.1 10.8 0.1
v 5.3 10.7 0.1
v 5.3 10.8 0.1
v -5.2 10.5 0
v -5.2 10.6 0
v -5.2 10.7 0
v -5 10.6 0
v -5 10.7 0
v -1.5 10.5 0
v -1.5 10.6 0
v -1 10.5 0
v -1 10.6 0
v 3.2 10.5 0
v 3.2 10.6 0
v 5.1 10.6 0
v 5.1 10.7 0
v 5.3 10.6 0
v 5.3 10.7 0
v -5.2 10.4 -0.1
v -5.2 10.5 -0.1
v -5 10.4 -0.1
v -5 10.5 -0.1
v -1.5 10.5 -0.1
v -1.5 10.6 -0.1
v -1 10.5 -0.1
v -1 10.6 -0.1
v 3.2 10.5 -0.1
v 3.2 10.6 -0.1
v 5.1 10.4 -0.1
v 5.1 10.6 -0.1
v 5.3 10.4 -0.1
v 5.3 10.6 -0.1
v -5.2 1.9 -0.2
v -5.2 10.4 -0.2
v -5 1.9 -0.2
v -5 2.6 -0.2
v -5 2.7 -0.2
v -5 3.4 -0.2
v -5 3.5 -0.2
v -5 4.2 -0.2
v -5 4.3 -0.2
v -5 5 -0.2
v -5 5.1 -0.2
v -5 5.8 -0.2
v -5 5.9 -0.2
v -5 6.6 -0.2
v -5 6.7 -0.2
v -5 7.4 -0.2
v -5 7.5 -0.2
v -5 8.1 -0.2
v -5 8.2 -0.2
v -5 8.8 -0.2
v -5 8.9 -0.2
v -5 9.6 -0.2
v -5 9.7 -0.2
v -5 10.4 -0.2
v -0.6 2.9 -0.2
v -0.6 3.1 -0.2
v 0.7 2.9 -0.2
v 0.7 3.1 -0.2
v 5.1 1.9 -0.2
v 5.1 2.6 -0.2
v 5.1 2.7 -0.2
v 5.1 3.4 -0.2
v 5.1 3.5 -0.2
v 5.1 4.2 -0.2
v 5.1 4.3 -0.2
v 5.1 5 -0.2
v 5.1 5.1 -0.2
v 5.1 5.8 -0.2
v 5.1 5.9 -0.2
v 5.1 6.6 -0.2
v 5.1 6.7 -0.2
v 5.1 7.4 -0.2
v 5.1 7.5 -0.2
v 5.1 8.1 -0.2
v 5.1 8.2 -0.2
v 5.1 8.8 -0.2
v 5.1 8.9 -0.2
v 5.1 9.6 -0.2
v 5.1 9.7 -0.2
v 5.1 10.4 -0.2
v 5.3 1.9 -0.2
v 5.3 10.4 -0.2
v -5.2 11 0.1
v -5.2 11.1 0.1
v -5 11 0.1
v -5 11.1 0.1
v 5.1 11 0.1
v 5.1 11.1 0.1
v 5.3 11 0.1
v 5.3 11.1 0.1
v -5.2 10.9 0
v -5.2 11 0
v -5 10.9 0
v -5 11 0
v 5.1 10.9 0
v 5.1 11 0
v 5.3 10.9 0
v 5.3 11 0
v -5.2 10.7 -0.1
v -5.2 10.9 -0.1
v -5 10.7 -0.1
v -5 10.9 -0.1
v 5.1 10.7 -0.1
v 5.1 10.9 -0.1
v 5.3 10.7 -0.1
v 5.3 10.9 -0.1
v -5.2 10.5 -0.2
v -5.2 10.7 -0.2
v -5 10.5 -0.2
v -5 10.7 -0.2
v 5.1 10.5 -0.2
v 5.1 10.7 -0.2
v 5.3 10.5 -0.2
v 5.3 10.7 -0.2
v -5.2 1.9 -0.3
v -5.2 10.5 -0.3
v -5 1.9 -0.3
v -5 2.6 -0.3
v -5 2.7 -0.3
v -5 3.4 -0.3
v -5 3.5 -0.3
v -5 4.2 -0.3
v -5 4.3 -0.3
v -5 5 -0.3
v -5 5.1 -0.3
v -5 5.8 -0.3
v -5 5.9 -0.3
v -5 6.6 -0.3
v -5 6.7 -0.3
v -5 7.4 -0.3
v -5 7.5 -0.3
v -5 8.1 -0.3
v -5 8.2 -0.3
v -5 8.8 -0.3
v -5 8.9 -0.3
v -5 9.6 -0.3
v -5 9.7 -0.3
v -5 10.4 -0.3
v -5 10.5 -0.3
v -0.6 2.9 -0.3
v -0.6 3.1 -0.3
v 0.7 2.9 -0.3
v 0.7 3.1 -0.3
v 5.1 1.9 -0.3
v 5.1 2.6 -0.3
v 5.1 2.7 -0.3
v 5.1 3.4 -0.3
v 5.1 3.5 -0.3
v 5.1 4.2 -0.3
v 5.1 4.3 -0.3
v 5.1 5 -0.3
v 5.1 5.1 -0.3
v 5.1 5.8 -0.3
v 5.1 5.9 -0.3
v 5.1 6.6 -0.3
v 5.1 6.7 -0.3
v 5.1 7.4 -0.3
v 5.1 7.5 -0.3
v 5.1 8.1 -0.3
v 5.1 8.2 -0.3
v 5.1 8.8 -0.3
v 5.1 8.9 -0.3
v 5.1 9.6 -0.3
v 5.1 9.7 -0.3
v 5.1 10.4 -0.3
v 5.1 10.5 -0.3
v 5.3 1.9 -0.3
v 5.3 10.5 -0.3
v -5.2 1.9 -0.2
v -5 1.9 -0.2
v 5.1 1.9 -0.2
v 5.3 1.9 -0.2
v -5.2 1.9 -0.3
v -5 1.9 -0.3
v 5.1 1.9 -0.3
v 5.3 1.9 -0.3
v -5.2 10.4 -0.1
v -5 10.4 -0.1
v 5.1 10.4 -0.1
v 5.3 10.4 -0.1
v -5.2 10.4 -0.2
v -5 10.4 -0.2
v 5.1 10.4 -0.2
v 5.3 10.4 -0.2
v -5.2 10.5 0
v -1.5 10.5 0
v -1 10.5 0
v 3.2 10.5 0
v -5.2 10.5 -0.1
v -5 10.5 -0.1
v -1.5 10.5 -0.1
v -1 10.5 -0.1
v 3.2 10.5 -0.1
v -1.5 10.6 0
v -1 10.6 0
v 3.2 10.6 0
v 5.1 10.6 0
v 5.3 10.6 0
v -1.5 10.6 -0.1
v -1 10.6 -0.1
v 3.2 10.6 -0.1
v 5.1 10.6 -0.1
v 5.3 10.6 -0.1
v -5.2 10.7 0.1
v 5.1 10.7 0.1
v 5.3 10.7 0.1
v -5.2 10.7 0
v -5 10.7 0
v 5.1 10.7 0
v 5.3 10.7 0
v -5.2 10.8 0.2
v 5.1 10.8 0.2
v 5.3 10.8 0.2
v -5.2 10.8 0.1
v 5.1 10.8 0.1
v 5.3 10.8 0.1
v -5.2 10.5 -0.2
v -5 10.5 -0.2
v 5.1 10.5 -0.2
v 5.3 10.5 -0.2
v -5.2 10.5 -0.3
v -5 10.5 -0.3
v 5.1 10.5 -0.3
v 5.3 10.5 -0.3
v -5.2 10.7 -0.1
v -5 10.7 -0.1
v 5.1 10.7 -0.1
v 5.3 10.7 -0.1
v -5.2 10.7 -0.2
v -5 10.7 -0.2
v 5.1 10.7 -0.2
v 5.3 10.7 -0.2
v -5.2 10.9 0
v -5 10.9 0
v 5.1 10.9 0
v 5.3 10.9 0
v -5.2 10.9 -0.1
v -5 10.9 -0.1
v 5.1 10.9 -0.1
v 5.3 10.9 -0.1
v -5.2 11 0.1
v -5 11 0.1
v 5.1 11 0.1
v 5.3 11 0.1
v -5.2 11 0
v -5 11 0
v 5.1 11 0
v 5.3 11 0
v -5.2 11.1 0.2
v -5 11.1 0.2
v 5.1 11.1 0.2
v 5.3 11.1 0.2
v -5.2 11.1 0.1
v -5 11.1 0.1
v 5.1 11.1 0.1
v 5.3 11.1 0.1

# faces
f 4/1/1 2/1/1 1/1/1
f 6/1/1 4/1/1 3/1/1
f 7/1/1 2/1/1 4/1/1
f 7/1/1 4/1/1 6/1/1
f 8/1/1 2/1/1 7/1/1
f 9/3/1 6/3/1 5/3/1
f 10/1/1 7/1/1 6/1/1
f 10/3/1 6/3/1 9/3/1
f 12/1/1 10/1/1 9/1/1
f 13/1/1 7/1/1 10/1/1
f 13/1/1 10/1/1 12/1/1
f 14/1/1 7/1/1 13/1/1
f 16/3/1 12/3/1 11/3/1
f 17/1/1 13/1/1 12/1/1
f 17/3/1 12/3/1 16/3/1
f 18/3/1 16/3/1 15/3/1
f 19/1/1 17/1/1 16/1/1
f 19/3/1 16/3/1 18/3/1
f 20/1/1 13/1/1 17/1/1
f 20/1/1 17/1/1 19/1/1
f 21/1/1 13/1/1 20/1/1
f 22/1/1 19/1/1 18/1/1
f 22/1/1 20/1/1 19/1/1
f 23/1/1 20/1/1 22/1/1
f 24/1/1 22/1/1 18/1/1
f 25/1/1 22/1/1 24/1/1
f 28/3/1 27/3/1 26/3/1
f 29/3/1 27/3/1 28/3/1
f 30/3/2 31/3/2 32/3/2
f 32/3/2 31/3/2 33/3/2
f 34/3/2 35/3/2 36/3/2
f 36/3/2 35/3/2 37/3/2
f 38/1/2 39/1/2 41/1/2
f 41/1/2 39/1/2 42/1/2
f 40/1/2 41/1/2 42/1/2
f 42/1/2 39/1/2 43/1/2
f 40/1/2 42/1/2 45/1/2
f 44/1/2 45/1/2 47/1/2
f 45/1/2 42/1/2 48/1/2
f 47/1/2 45/1/2 48/1/2
f 48/1/2 42/1/2 49/1/2
f 46/1/2 47/1/2 51/1/2
f 47/1/2 48/1/2 51/1/2
f 51/1/2 48/1/2 52/1/2
f 50/1/2 51/1/2 52/1/2
f 52/1/2 48/1/2 53/1/2
f 50/1/2 52/1/2 54/1/2
f 54/1/2 52/1/2 55/1/2
f 50/1/2 54/1/2 56/1/2
f 56/1/2 54/1/2 57/1/2
f 61/3/3 59/3/3 58/3/3
f 61/1/3 60/1/3 59/1/3
f 62/1/3 60/1/3 61/1/3
f 63/3/3 61/3/3 58/3/3
f 63/3/3 62/3/3 61/3/3
f 64/3/3 62/3/3 63/3/3
f 65/1/3 64/1/3 63/1/3
f 66/1/3 64/1/3 65/1/3
f 69/3/3 68/3/3 67/3/3
f 70/3/3 68/3/3 69/3/3
f 71/1/3 70/1/3 69/1/3
f 72/1/3 70/1/3 71/1/3
f 76/3/3 74/3/3 73/3/3
f 76/1/3 75/1/3 74/1/3
f 77/1/3 75/1/3 76/1/3
f 78/3/3 76/3/3 73/3/3
f 78/3/3 77/3/3 76/3/3
f 79/3/3 77/3/3 78/3/3
f 81/3/3 77/3/3 79/3/3
f 82/3/3 81/3/3 80/3/3
f 83/3/3 77/3/3 81/3/3
f 83/3/3 81/3/3 82/3/3
f 84/3/3 77/3/3 83/3/3
f 85/3/3 77/3/3 84/3/3
f 86/1/3 85/1/3 84/1/3
f 87/1/3 85/1/3 86/1/3
f 90/1/3 89/1/3 88/1/3
f 91/1/3 89/1/3 90/1/3
f 92/3/3 91/3/3 90/3/3
f 94/3/3 92/3/3 90/3/3
f 94/3/3 93/3/3 92/3/3
f 95/3/3 93/3/3 94/3/3
f 96/3/3 94/3/3 90/3/3
f 98/3/3 96/3/3 90/3/3
f 98/3/3 97/3/3 96/3/3
f 99/3/3 97/3/3 98/3/3
f 100/1/3 99/1/3 98/1/3
f 101/1/3 99/1/3 100/1/3
f 104/1/3 103/1/3 102/1/3
f 105/1/3 103/1/3 104/1/3
f 106/1/3 103/1/3 105/1/3
f 107/1/3 103/1/3 106/1/3
f 108/1/3 103/1/3 107/1/3
f 109/1/3 103/1/3 108/1/3
f 110/1/3 103/1/3 109/1/3
f 111/1/3 103/1/3 110/1/3
f 112/1/3 103/1/3 111/1/3
f 113/1/3 103/1/3 112/1/3
f 114/1/3 103/1/3 113/1/3
f 115/1/3 103/1/3 114/1/3
f 116/1/3 103/1/3 115/1/3
f 117/1/3 103/1/3 116/1/3
f 118/1/3 103/1/3 117/1/3
f 119/1/3 103/1/3 118/1/3
f 120/1/3 103/1/3 119/1/3
f 121/1/3 103/1/3 120/1/3
f 122/1/3 103/1/3 121/1/3
f 123/1/3 103/1/3 122/1/3
f 124/1/3 103/1/3 123/1/3
f 125/1/3 103/1/3 124/1/3
f 126/3/3 107/3/3 106/3/3
f 127/3/3 107/3/3 126/3/3
f 128/3/3 126/3/3 106/3/3
f 128/2/3 127/2/3 126/2/3
f 129/3/3 107/3/3 127/3/3
f 129/2/3 127/2/3 128/2/3
f 130/3/3 105/3/3 104/3/3
f 131/4/3 106/4/3 105/4/3
f 131/3/3 105/3/3 130/3/3
f 132/3/3 128/3/3 106/3/3
f 132/4/3 106/4/3 131/4/3
f 132/3/3 129/3/3 128/3/3
f 133/3/3 107/3/3 129/3/3
f 133/3/3 129/3/3 132/3/3
f 133/4/3 108/4/3 107/4/3
f 134/3/3 109/3/3 108/3/3
f 134/4/3 108/4/3 133/4/3
f 135/4/3 110/4/3 109/4/3
f 135/3/3 109/3/3 134/3/3
f 136/3/3 111/3/3 110/3/3
f 136/4/3 110/4/3 135/4/3
f 137/4/3 112/4/3 111/4/3
f 137/3/3 111/3/3 136/3/3
f 138/3/3 113/3/3 112/3/3
f 138/4/3 112/4/3 137/4/3
f 139/4/3 114/4/3 113/4/3
f 139/3/3 113/3/3 138/3/3
f 140/3/3 115/3/3 114/3/3
f 140/4/3 114/4/3 139/4/3
f 141/4/3 116/4/3 115/4/3
f 141/3/3 115/3/3 140/3/3
f 142/3/3 117/3/3 116/3/3
f 142/4/3 116/4/3 141/4/3
f 143/4/3 118/4/3 117/4/3
f 143/3/3 117/3/3 142/3/3
f 144/3/3 119/3/3 118/3/3
f 144/4/3 118/4/3 143/4/3
f 145/4/3 120/4/3 119/4/3
f 145/3/3 119/3/3 144/3/3
f 146/3/3 121/3/3 120/3/3
f 146/4/3 120/4/3 145/4/3
f 147/4/3 122/4/3 121/4/3
f 147/3/3 121/3/3 146/3/3
f 148/3/3 123/3/3 122/3/3
f 148/4/3 122/4/3 147/4/3
f 149/4/3 124/4/3 123/4/3
f 149/3/3 123/3/3 148/3/3
f 150/3/3 125/3/3 124/3/3
f 150/4/3 124/4/3 149/4/3
f 151/3/3 125/3/3 150/3/3
f 152/1/3 132/1/3 131/1/3
f 152/1/3 131/1/3 130/1/3
f 152/1/3 151/1/3 150/1/3
f 152/1/3 150/1/3 149/1/3
f 152/1/3 149/1/3 148/1/3
f 152/1/3 148/1/3 147/1/3
f 152/1/3 147/1/3 146/1/3
f 152/1/3 146/1/3 145/1/3
f 152/1/3 145/1/3 144/1/3
f 152/1/3 144/1/3 143/1/3
f 152/1/3 143/1/3 142/1/3
f 152/1/3 142/1/3 141/1/3
f 152/1/3 141/1/3 140/1/3
f 152/1/3 140/1/3 139/1/3
f 152/1/3 139/1/3 138/1/3
f 152/1/3 138/1/3 137/1/3
f 152/1/3 137/1/3 136/1/3
f 152/1/3 136/1/3 135/1/3
f 152/1/3 135/1/3 134/1/3
f 152/1/3 134/1/3 133/1/3
f 152/1/3 133/1/3 132/1/3
f 153/1/3 151/1/3 152/1/3
f 154/1/4 155/1/4 156/1/4
f 156/1/4 155/1/4 157/1/4
f 156/3/4 157/3/4 158/3/4
f 158/3/4 157/3/4 159/3/4
f 158/1/4 159/1/4 160/1/4
f 160/1/4 159/1/4 161/1/4
f 162/1/4 163/1/4 164/1/4
f 164/1/4 163/1/4 165/1/4
f 164/3/4 165/3/4 166/3/4
f 166/3/4 165/3/4 167/3/4
f 166/1/4 167/1/4 168/1/4
f 168/1/4 167/1/4 169/1/4
f 170/1/4 171/1/4 172/1/4
f 172/1/4 171/1/4 173/1/4
f 172/3/4 173/3/4 174/3/4
f 174/3/4 173/3/4 175/3/4
f 174/1/4 175/1/4 176/1/4
f 176/1/4 175/1/4 177/1/4
f 178/1/4 179/1/4 180/1/4
f 180/1/4 179/1/4 181/1/4
f 180/3/4 181/3/4 182/3/4
f 182/3/4 181/3/4 183/3/4
f 182/1/4 183/1/4 184/1/4
f 184/1/4 183/1/4 185/1/4
f 186/1/4 187/1/4 188/1/4
f 188/1/4 187/1/4 189/1/4
f 189/1/4 187/1/4 190/1/4
f 190/1/4 187/1/4 191/1/4
f 191/1/4 187/1/4 192/1/4
f 192/1/4 187/1/4 193/1/4
f 193/1/4 187/1/4 194/1/4
f 194/1/4 187/1/4 195/1/4
f 195/1/4 187/1/4 196/1/4
f 196/1/4 187/1/4 197/1/4
f 197/1/4 187/1/4 198/1/4
f 198/1/4 187/1/4 199/1/4
f 199/1/4 187/1/4 200/1/4
f 200/1/4 187/1/4 201/1/4
f 201/1/4 187/1/4 202/1/4
f 202/1/4 187/1/4 203/1/4
f 203/1/4 187/1/4 204/1/4
f 204/1/4 187/1/4 205/1/4
f 205/1/4 187/1/4 206/1/4
f 206/1/4 187/1/4 207/1/4
f 207/1/4 187/1/4 208/1/4
f 208/1/4 187/1/4 209/1/4
f 209/1/4 187/1/4 210/1/4
f 190/3/4 191/3/4 211/3/4
f 211/3/4 191/3/4 212/3/4
f 190/3/4 211/3/4 213/3/4
f 211/2/4 212/2/4 213/2/4
f 212/3/4 191/3/4 214/3/4
f 213/2/4 212/2/4 214/2/4
f 188/3/4 189/3/4 215/3/4
f 189/4/4 190/4/4 216/4/4
f 215/3/4 189/3/4 216/3/4
f 190/3/4 213/3/4 217/3/4
f 216/4/4 190/4/4 217/4/4
f 213/3/4 214/3/4 217/3/4
f 214/3/4 191/3/4 218/3/4
f 217/3/4 214/3/4 218/3/4
f 191/4/4 192/4/4 218/4/4
f 192/3/4 193/3/4 219/3/4
f 218/4/4 192/4/4 219/4/4
f 193/4/4 194/4/4 220/4/4
f 219/3/4 193/3/4 220/3/4
f 194/3/4 195/3/4 221/3/4
f 220/4/4 194/4/4 221/4/4
f 195/4/4 196/4/4 222/4/4
f 221/3/4 195/3/4 222/3/4
f 196/3/4 197/3/4 223/3/4
f 222/4/4 196/4/4 223/4/4
f 197/4/4 198/4/4 224/4/4
f 223/3/4 197/3/4 224/3/4
f 198/3/4 199/3/4 225/3/4
f 224/4/4 198/4/4 225/4/4
f 199/4/4 200/4/4 226/4/4
f 225/3/4 199/3/4 226/3/4
f 200/3/4 201/3/4 227/3/4
f 226/4/4 200/4/4 227/4/4
f 201/4/4 202/4/4 228/4/4
f 227/3/4 201/3/4 228/3/4
f 202/3/4 203/3/4 229/3/4
f 228/4/4 202/4/4 229/4/4
f 203/4/4 204/4/4 230/4/4
f 229/3/4 203/3/4 230/3/4
f 204/3/4 205/3/4 231/3/4
f 230/4/4 204/4/4 231/4/4
f 205/4/4 206/4/4 232/4/4
f 231/3/4 205/3/4 232/3/4
f 206/3/4 207/3/4 233/3/4
f 232/4/4 206/4/4 233/4/4
f 207/4/4 208/4/4 234/4/4
f 233/3/4 207/3/4 234/3/4
f 208/3/4 209/3/4 235/3/4
f 234/4/4 208/4/4 235/4/4
f 209/4/4 210/4/4 236/4/4
f 235/3/4 209/3/4 236/3/4
f 236/4/4 210/4/4 237/4/4
f 216/1/4 217/1/4 238/1/4
f 215/1/4 216/1/4 238/1/4
f 236/1/4 237/1/4 238/1/4
f 235/1/4 236/1/4 238/1/4
f 234/1/4 235/1/4 238/1/4
f 233/1/4 234/1/4 238/1/4
f 232/1/4 233/1/4 238/1/4
f 231/1/4 232/1/4 238/1/4
f 230/1/4 231/1/4 238/1/4
f 229/1/4 230/1/4 238/1/4
f 228/1/4 229/1/4 238/1/4
f 227/1/4 228/1/4 238/1/4
f 226/1/4 227/1/4 238/1/4
f 225/1/4 226/1/4 238/1/4
f 224/1/4 225/1/4 238/1/4
f 223/1/4 224/1/4 238/1/4
f 222/1/4 223/1/4 238/1/4
f 221/1/4 222/1/4 238/1/4
f 220/1/4 221/1/4 238/1/4
f 219/1/4 220/1/4 238/1/4
f 218/1/4 219/1/4 238/1/4
f 217/1/4 218/1/4 238/1/4
f 238/1/4 237/1/4 239/1/4
f 244/1/5 241/1/5 240/1/5
f 245/3/5 242/3/5 241/3/5
f 245/1/5 241/1/5 244/1/5
f 246/1/5 243/1/5 242/1/5
f 246/3/5 242/3/5 245/3/5
f 247/1/5 243/1/5 246/1/5
f 252/1/5 249/1/5 248/1/5
f 253/3/5 250/3/5 249/3/5
f 253/1/5 249/1/5 252/1/5
f 254/1/5 251/1/5 250/1/5
f 254/3/5 250/3/5 253/3/5
f 255/1/5 251/1/5 254/1/5
f 260/3/5 257/3/5 256/3/5
f 261/3/5 257/3/5 260/3/5
f 262/3/5 257/3/5 261/3/5
f 263/3/5 259/3/5 258/3/5
f 264/3/5 259/3/5 263/3/5
f 270/3/5 266/3/5 265/3/5
f 271/3/5 266/3/5 270/3/5
f 272/3/5 268/3/5 267/3/5
f 273/1/5 269/1/5 268/1/5
f 273/3/5 268/3/5 272/3/5
f 274/1/5 269/1/5 273/1/5
f 278/3/5 276/3/5 275/3/5
f 279/3/5 276/3/5 278/3/5
f 280/1/5 277/1/5 276/1/5
f 280/3/5 276/3/5 279/3/5
f 281/1/5 277/1/5 280/1/5
f 285/3/5 283/3/5 282/3/5
f 286/1/5 284/1/5 283/1/5
f 286/3/5 283/3/5 285/3/5
f 287/1/5 284/1/5 286/1/5
f 288/1/6 289/1/6 292/1/6
f 289/4/6 290/4/6 293/4/6
f 292/1/6 289/1/6 293/1/6
f 290/1/6 291/1/6 294/1/6
f 293/4/6 290/4/6 294/4/6
f 294/1/6 291/1/6 295/1/6
f 296/1/6 297/1/6 300/1/6
f 297/3/6 298/3/6 301/3/6
f 300/1/6 297/1/6 301/1/6
f 298/1/6 299/1/6 302/1/6
f 301/3/6 298/3/6 302/3/6
f 302/1/6 299/1/6 303/1/6
f 304/1/6 305/1/6 308/1/6
f 305/3/6 306/3/6 309/3/6
f 308/1/6 305/1/6 309/1/6
f 306/1/6 307/1/6 310/1/6
f 309/3/6 306/3/6 310/3/6
f 310/1/6 307/1/6 311/1/6
f 312/1/6 313/1/6 316/1/6
f 313/3/6 314/3/6 317/3/6
f 316/1/6 313/1/6 317/1/6
f 314/1/6 315/1/6 318/1/6
f 317/3/6 314/3/6 318/3/6
f 318/1/6 315/1/6 319/1/6
f 320/1/6 321/1/6 324/1/6
f 321/3/6 322/3/6 325/3/6
f 324/1/6 321/1/6 325/1/6
f 322/1/6 323/1/6 326/1/6
f 325/3/6 322/3/6 326/3/6
f 326/1/6 323/1/6 327/1/6
